<svg width="201" height="42" viewBox="0 0 201 42" fill="none" xmlns="http://www.w3.org/2000/svg">
<path d="M0.222158 1.17673H26.5773C31.9838 1.17673 34.3682 1.63795 36.1084 3.11511C37.8951 4.54548 38.7187 7.17227 38.7187 11.323C38.7187 17.0445 37.3438 19.3037 33.445 20.1793C37.2508 20.8277 38.3932 22.4385 38.3069 27.0973V31.9432H28.8621V28.1132C28.8156 24.7913 27.899 24.1028 23.7279 24.1897H9.47435V31.9365H0.215515V1.17004L0.222158 1.17673ZM24.0069 16.6702C28.4968 16.6702 29.3735 16.1155 29.3735 13.0742C29.3735 11.0891 29.1875 10.2603 28.5964 9.61193C27.9057 8.87669 27.1286 8.73633 24.3323 8.73633H9.48099V16.6702H24.0135H24.0069Z" fill="white"/>
<path d="M62.097 28.1152C61.0409 31.6243 59.1613 32.4531 52.1939 32.4531C43.1144 32.4531 41.0089 31.1631 41.0089 25.4884C41.0089 21.4312 42.4303 19.3992 45.7778 18.7509C47.5645 18.3833 49.6301 18.2897 54.213 18.2897C59.4402 18.2897 61.0874 18.8912 61.8712 20.9633V18.6105C61.8712 15.2886 61.1804 14.921 55.2691 14.921C50.5467 14.921 49.9489 15.1081 49.8161 16.6722H41.9321C42.0716 13.8582 42.8952 12.5214 45.0937 11.3183C47.1992 10.2087 49.6301 9.88794 56.6905 9.88794C62.376 9.88794 65.0327 10.2555 66.9589 11.3183C68.4267 12.1471 69.4828 13.7178 69.8481 15.7498C69.9411 16.182 69.9876 17.1356 69.9876 18.6105V31.9451H62.1036V28.1152H62.097ZM48.7999 25.1141C48.7999 26.3573 49.577 27.0992 51.2308 27.3732C51.7821 27.4668 52.8382 27.5136 55.6743 27.5136C58.5104 27.5136 59.5731 27.42 60.4896 27.146C61.4062 26.9187 62.004 26.0364 62.004 25.0673C62.004 23.1289 60.8151 22.7145 55.0366 22.7145C50.0884 22.7145 48.7999 23.2225 48.7999 25.1141Z" fill="white"/>
<path d="M73.2769 10.4001H80.935V14.7848C81.5793 12.7528 82.3099 11.7837 83.8707 10.9549C85.2456 10.2597 87.3577 9.89209 89.968 9.89209C95.514 9.89209 98.7686 11.5096 100.05 14.8717C100.967 11.3225 103.624 9.89209 109.309 9.89209C117.559 9.89209 120.953 12.8464 120.953 20.0384V31.9426H113.069V20.64C113.069 17.1309 111.787 16.1216 107.29 16.1216C102.428 16.1216 101.053 17.318 101.053 21.7027V31.9426H93.1694V21.0544C93.1694 16.9036 92.2063 16.0748 87.391 16.0748C82.5756 16.0748 81.1542 17.318 81.1542 21.0544V31.9426H73.2702V10.4001H73.2769Z" fill="white"/>
<path d="M131.765 14.9185C132.821 10.7209 134.515 9.89209 141.755 9.89209C147.301 9.89209 150.416 10.6274 152.435 12.432C154.042 13.8156 154.587 16.0748 154.587 21.0611C154.587 26.3214 153.943 28.6273 152.063 30.1981C150.137 31.8557 147.294 32.4573 141.569 32.4573C135.246 32.4573 132.536 31.214 131.759 27.9389V41.3135H123.875V10.4068H131.759V14.9252L131.765 14.9185ZM133.187 16.5828C132.177 17.3648 131.812 18.5679 131.812 21.1947C131.812 25.9003 132.635 26.455 139.51 26.455C143.269 26.455 144.411 26.2679 145.195 25.6262C146.158 24.7974 146.477 23.6411 146.477 20.9207C146.477 16.6763 145.328 15.8008 139.696 15.8008C135.385 15.8008 134.01 15.9879 133.187 16.5828Z" fill="white"/>
<path d="M170.084 16.584L155.644 1.17737H167.932L177.742 12.1993L187.738 1.17737H199.7L185.307 16.4436L200.663 31.9438H188.011L177.742 20.8751L167.427 31.9438H154.867L170.084 16.584Z" fill="white"/>
</svg>
