<svg width="95" height="20" viewBox="0 0 95 20" fill="none" xmlns="http://www.w3.org/2000/svg">
<path d="M0.497021 0.1926H12.8921C15.4348 0.1926 16.5563 0.409512 17.3747 1.10424C18.215 1.77696 18.6023 3.01236 18.6023 4.96451C18.6023 7.65539 17.9557 8.71791 16.1221 9.12972C17.912 9.43464 18.4493 10.1922 18.4087 12.3833V14.6624H13.9667V12.8611C13.9448 11.2988 13.5137 10.975 11.552 11.0158H4.84842V14.6592H0.493896V0.189453L0.497021 0.1926ZM11.6832 7.47935C13.7949 7.47935 14.2072 7.21843 14.2072 5.78812C14.2072 4.85448 14.1197 4.46469 13.8417 4.15976C13.5169 3.81397 13.1514 3.74796 11.8363 3.74796H4.85154V7.47935H11.6863H11.6832Z" fill="white"/>
<path d="M29.5973 12.8622C29.1006 14.5126 28.2166 14.9024 24.9398 14.9024C20.6696 14.9024 19.6794 14.2957 19.6794 11.6268C19.6794 9.7187 20.3479 8.76305 21.9222 8.45813C22.7625 8.28523 23.734 8.24122 25.8894 8.24122C28.3478 8.24122 29.1225 8.52414 29.4911 9.49864V8.39213C29.4911 6.82978 29.1662 6.65688 26.3861 6.65688C24.1651 6.65688 23.884 6.7449 23.8215 7.48049H20.1136C20.1792 6.15705 20.5665 5.52834 21.6005 4.9625C22.5907 4.44067 23.734 4.28979 27.0546 4.28979C29.7285 4.28979 30.978 4.46268 31.8839 4.9625C32.5743 5.3523 33.0709 6.09104 33.2428 7.04668C33.2865 7.24996 33.3084 7.69845 33.3084 8.39213V14.6635H29.6004V12.8622H29.5973ZM23.3436 11.4508C23.3436 12.0355 23.709 12.3844 24.4869 12.5133C24.7461 12.5573 25.2428 12.5793 26.5766 12.5793C27.9105 12.5793 28.4103 12.5353 28.8414 12.4064C29.2725 12.2995 29.5536 11.8846 29.5536 11.4288C29.5536 10.5172 28.9944 10.3223 26.2768 10.3223C23.9496 10.3223 23.3436 10.5612 23.3436 11.4508Z" fill="white"/>
<path d="M34.8552 4.53042H38.4569V6.59259C38.7599 5.63695 39.1035 5.18114 39.8376 4.79134C40.4842 4.46441 41.4776 4.2915 42.7052 4.2915C45.3135 4.2915 46.8442 5.05225 47.4471 6.63345C47.8781 4.96423 49.1276 4.2915 51.8016 4.2915C55.6813 4.2915 57.2775 5.68097 57.2775 9.06343V14.6621H53.5696V9.34634C53.5696 7.69597 52.9667 7.2213 50.852 7.2213C48.5654 7.2213 47.9187 7.784 47.9187 9.84617V14.6621H44.2108V9.54124C44.2108 7.58909 43.7579 7.19929 41.4932 7.19929C39.2284 7.19929 38.56 7.78399 38.56 9.54124V14.6621H34.8521V4.53042H34.8552Z" fill="white"/>
<path d="M62.3629 6.65546C62.8596 4.68131 63.6562 4.2915 67.0611 4.2915C69.6694 4.2915 71.1345 4.63731 72.0841 5.48607C72.84 6.13678 73.0962 7.1993 73.0962 9.54439C73.0962 12.0184 72.7932 13.1029 71.9092 13.8416C71.0033 14.6212 69.6663 14.9041 66.9736 14.9041C63.9998 14.9041 62.7253 14.3194 62.3598 12.7791V19.0693H58.6519V4.53356H62.3598V6.65861L62.3629 6.65546ZM63.0314 7.4382C62.5566 7.806 62.3848 8.37184 62.3848 9.60726C62.3848 11.8203 62.7722 12.0812 66.0053 12.0812C67.7733 12.0812 68.3106 11.9932 68.6792 11.6914C69.1321 11.3016 69.2821 10.7578 69.2821 9.47836C69.2821 7.48221 68.7417 7.07041 66.0927 7.07041C64.0654 7.07041 63.4188 7.15843 63.0314 7.4382Z" fill="white"/>
<path d="M80.3847 7.43875L73.5936 0.192871H79.3726L83.9864 5.37658L88.6876 0.192871H94.3135L87.5443 7.37275L94.7665 14.6626H88.8157L83.9864 9.45693L79.1352 14.6626H73.2281L80.3847 7.43875Z" fill="white"/>
</svg>
