<svg width="1588" height="686" viewBox="0 0 1588 686" fill="none" xmlns="http://www.w3.org/2000/svg">
<g style="mix-blend-mode:overlay">
<path d="M37.3969 0.45459H1.36816V36.4833M37.3969 0.45459V36.4833M37.3969 0.45459H73.4256M37.3969 36.4833H1.36816M37.3969 36.4833V72.512M37.3969 36.4833H73.4256M1.36816 36.4833V72.512M37.3969 72.512H1.36816M37.3969 72.512V108.541M37.3969 72.512H73.4256M1.36816 72.512V108.541M37.3969 108.541H1.36816M37.3969 108.541V144.569M37.3969 108.541H73.4256M1.36816 108.541V144.569M37.3969 144.569H1.36816M37.3969 144.569V180.598M37.3969 144.569H73.4256M1.36816 144.569V180.598M37.3969 180.598H1.36816M37.3969 180.598V216.627M37.3969 180.598H73.4256M1.36816 180.598V216.627M37.3969 216.627H1.36816M37.3969 216.627V252.656M37.3969 216.627H73.4256M1.36816 216.627V252.656M37.3969 252.656H1.36816M37.3969 252.656V288.684M37.3969 252.656H73.4256M1.36816 252.656V288.684M37.3969 288.684H1.36816M37.3969 288.684V324.713M37.3969 288.684H73.4256M1.36816 288.684V324.713M37.3969 324.713H1.36816M37.3969 324.713V360.742M37.3969 324.713H73.4256M1.36816 324.713V360.742M37.3969 360.742H1.36816M37.3969 360.742V396.77M37.3969 360.742H73.4256M1.36816 360.742V396.77M37.3969 396.77H1.36816M37.3969 396.77V432.799M37.3969 396.77H73.4256M1.36816 396.77V432.799M37.3969 432.799H1.36816M37.3969 432.799V468.828M37.3969 432.799H73.4256M1.36816 432.799V468.828M37.3969 468.828H1.36816M37.3969 468.828V504.857M37.3969 468.828H73.4256M1.36816 468.828V504.857M37.3969 504.857H1.36816M37.3969 504.857V540.885M37.3969 504.857H73.4256M1.36816 504.857V540.885M37.3969 540.885H1.36816M37.3969 540.885V576.914M37.3969 540.885H73.4256M1.36816 540.885V576.914M37.3969 576.914H1.36816M37.3969 576.914V612.943M37.3969 576.914H73.4256M1.36816 576.914V612.943M37.3969 612.943H1.36816M37.3969 612.943V648.971M37.3969 612.943H73.4256M1.36816 612.943V648.971M37.3969 648.971H1.36816M37.3969 648.971V685M37.3969 648.971H73.4256M1.36816 648.971V685H37.3969M37.3969 685H73.4256M73.4256 0.45459V36.4833M73.4256 0.45459H109.454M73.4256 36.4833V72.512M73.4256 36.4833H109.454M73.4256 72.512V108.541M73.4256 72.512H109.454M73.4256 108.541V144.569M73.4256 108.541H109.454M73.4256 144.569V180.598M73.4256 144.569H109.454M73.4256 180.598V216.627M73.4256 180.598H109.454M73.4256 216.627V252.656M73.4256 216.627H109.454M73.4256 252.656V288.684M73.4256 252.656H109.454M73.4256 288.684V324.713M73.4256 288.684H109.454M73.4256 324.713V360.742M73.4256 324.713H109.454M73.4256 360.742V396.77M73.4256 360.742H109.454M73.4256 396.77V432.799M73.4256 396.77H109.454M73.4256 432.799V468.828M73.4256 432.799H109.454M73.4256 468.828V504.857M73.4256 468.828H109.454M73.4256 504.857V540.885M73.4256 504.857H109.454M73.4256 540.885V576.914M73.4256 540.885H109.454M73.4256 576.914V612.943M73.4256 576.914H109.454M73.4256 612.943V648.971M73.4256 612.943H109.454M73.4256 648.971V685M73.4256 648.971H109.454M73.4256 685H109.454M109.454 0.45459V36.4833M109.454 0.45459H145.483M109.454 36.4833V72.512M109.454 36.4833H145.483M109.454 72.512V108.541M109.454 72.512H145.483M109.454 108.541V144.569M109.454 108.541H145.483M109.454 144.569V180.598M109.454 144.569H145.483M109.454 180.598V216.627M109.454 180.598H145.483M109.454 216.627V252.656M109.454 216.627H145.483M109.454 252.656V288.684M109.454 252.656H145.483M109.454 288.684V324.713M109.454 288.684H145.483M109.454 324.713V360.742M109.454 324.713H145.483M109.454 360.742V396.77M109.454 360.742H145.483M109.454 396.77V432.799M109.454 396.77H145.483M109.454 432.799V468.828M109.454 432.799H145.483M109.454 468.828V504.857M109.454 468.828H145.483M109.454 504.857V540.885M109.454 504.857H145.483M109.454 540.885V576.914M109.454 540.885H145.483M109.454 576.914V612.943M109.454 576.914H145.483M109.454 612.943V648.971M109.454 612.943H145.483M109.454 648.971V685M109.454 648.971H145.483M109.454 685H145.483M145.483 0.45459V36.4833M145.483 0.45459H181.512M145.483 36.4833V72.512M145.483 36.4833H181.512M145.483 72.512V108.541M145.483 72.512H181.512M145.483 108.541V144.569M145.483 108.541H181.512M145.483 144.569V180.598M145.483 144.569H181.512M145.483 180.598V216.627M145.483 180.598H181.512M145.483 216.627V252.656M145.483 216.627H181.512M145.483 252.656V288.684M145.483 252.656H181.512M145.483 288.684V324.713M145.483 288.684H181.512M145.483 324.713V360.742M145.483 324.713H181.512M145.483 360.742V396.77M145.483 360.742H181.512M145.483 396.77V432.799M145.483 396.77H181.512M145.483 432.799V468.828M145.483 432.799H181.512M145.483 468.828V504.857M145.483 468.828H181.512M145.483 504.857V540.885M145.483 504.857H181.512M145.483 540.885V576.914M145.483 540.885H181.512M145.483 576.914V612.943M145.483 576.914H181.512M145.483 612.943V648.971M145.483 612.943H181.512M145.483 648.971V685M145.483 648.971H181.512M145.483 685H181.512M181.512 0.45459V36.4833M181.512 0.45459H217.54M181.512 36.4833V72.512M181.512 36.4833H217.54M181.512 72.512V108.541M181.512 72.512H217.54M181.512 108.541V144.569M181.512 108.541H217.54M181.512 144.569V180.598M181.512 144.569H217.54M181.512 180.598V216.627M181.512 180.598H217.54M181.512 216.627V252.656M181.512 216.627H217.54M181.512 252.656V288.684M181.512 252.656H217.54M181.512 288.684V324.713M181.512 288.684H217.54M181.512 324.713V360.742M181.512 324.713H217.54M181.512 360.742V396.77M181.512 360.742H217.54M181.512 396.77V432.799M181.512 396.77H217.54M181.512 432.799V468.828M181.512 432.799H217.54M181.512 468.828V504.857M181.512 468.828H217.54M181.512 504.857V540.885M181.512 504.857H217.54M181.512 540.885V576.914M181.512 540.885H217.54M181.512 576.914V612.943M181.512 576.914H217.54M181.512 612.943V648.971M181.512 612.943H217.54M181.512 648.971V685M181.512 648.971H217.54M181.512 685H217.54M217.54 0.45459V36.4833M217.54 0.45459H253.569M217.54 36.4833V72.512M217.54 36.4833H253.569M217.54 72.512V108.541M217.54 72.512H253.569M217.54 108.541V144.569M217.54 108.541H253.569M217.54 144.569V180.598M217.54 144.569H253.569M217.54 180.598V216.627M217.54 180.598H253.569M217.54 216.627V252.656M217.54 216.627H253.569M217.54 252.656V288.684M217.54 252.656H253.569M217.54 288.684V324.713M217.54 288.684H253.569M217.54 324.713V360.742M217.54 324.713H253.569M217.54 360.742V396.77M217.54 360.742H253.569M217.54 396.77V432.799M217.54 396.77H253.569M217.54 432.799V468.828M217.54 432.799H253.569M217.54 468.828V504.857M217.54 468.828H253.569M217.54 504.857V540.885M217.54 504.857H253.569M217.54 540.885V576.914M217.54 540.885H253.569M217.54 576.914V612.943M217.54 576.914H253.569M217.54 612.943V648.971M217.54 612.943H253.569M217.54 648.971V685M217.54 648.971H253.569M217.54 685H253.569M253.569 0.45459V36.4833M253.569 0.45459H289.598M253.569 36.4833V72.512M253.569 36.4833H289.598M253.569 72.512V108.541M253.569 72.512H289.598M253.569 108.541V144.569M253.569 108.541H289.598M253.569 144.569V180.598M253.569 144.569H289.598M253.569 180.598V216.627M253.569 180.598H289.598M253.569 216.627V252.656M253.569 216.627H289.598M253.569 252.656V288.684M253.569 252.656H289.598M253.569 288.684V324.713M253.569 288.684H289.598M253.569 324.713V360.742M253.569 324.713H289.598M253.569 360.742V396.77M253.569 360.742H289.598M253.569 396.77V432.799M253.569 396.77H289.598M253.569 432.799V468.828M253.569 432.799H289.598M253.569 468.828V504.857M253.569 468.828H289.598M253.569 504.857V540.885M253.569 504.857H289.598M253.569 540.885V576.914M253.569 540.885H289.598M253.569 576.914V612.943M253.569 576.914H289.598M253.569 612.943V648.971M253.569 612.943H289.598M253.569 648.971V685M253.569 648.971H289.598M253.569 685H289.598M289.598 0.45459V36.4833M289.598 0.45459H325.627M289.598 36.4833V72.512M289.598 36.4833H325.627M289.598 72.512V108.541M289.598 72.512H325.627M289.598 108.541V144.569M289.598 108.541H325.627M289.598 144.569V180.598M289.598 144.569H325.627M289.598 180.598V216.627M289.598 180.598H325.627M289.598 216.627V252.656M289.598 216.627H325.627M289.598 252.656V288.684M289.598 252.656H325.627M289.598 288.684V324.713M289.598 288.684H325.627M289.598 324.713V360.742M289.598 324.713H325.627M289.598 360.742V396.77M289.598 360.742H325.627M289.598 396.77V432.799M289.598 396.77H325.627M289.598 432.799V468.828M289.598 432.799H325.627M289.598 468.828V504.857M289.598 468.828H325.627M289.598 504.857V540.885M289.598 504.857H325.627M289.598 540.885V576.914M289.598 540.885H325.627M289.598 576.914V612.943M289.598 576.914H325.627M289.598 612.943V648.971M289.598 612.943H325.627M289.598 648.971V685M289.598 648.971H325.627M289.598 685H325.627M325.627 0.45459V36.4833M325.627 0.45459H361.655M325.627 36.4833V72.512M325.627 36.4833H361.655M325.627 72.512V108.541M325.627 72.512H361.655M325.627 108.541V144.569M325.627 108.541H361.655M325.627 144.569V180.598M325.627 144.569H361.655M325.627 180.598V216.627M325.627 180.598H361.655M325.627 216.627V252.656M325.627 216.627H361.655M325.627 252.656V288.684M325.627 252.656H361.655M325.627 288.684V324.713M325.627 288.684H361.655M325.627 324.713V360.742M325.627 324.713H361.655M325.627 360.742V396.77M325.627 360.742H361.655M325.627 396.77V432.799M325.627 396.77H361.655M325.627 432.799V468.828M325.627 432.799H361.655M325.627 468.828V504.857M325.627 468.828H361.655M325.627 504.857V540.885M325.627 504.857H361.655M325.627 540.885V576.914M325.627 540.885H361.655M325.627 576.914V612.943M325.627 576.914H361.655M325.627 612.943V648.971M325.627 612.943H361.655M325.627 648.971V685M325.627 648.971H361.655M325.627 685H361.655M361.655 0.45459V36.4833M361.655 0.45459H397.684M361.655 36.4833V72.512M361.655 36.4833H397.684M361.655 72.512V108.541M361.655 72.512H397.684M361.655 108.541V144.569M361.655 108.541H397.684M361.655 144.569V180.598M361.655 144.569H397.684M361.655 180.598V216.627M361.655 180.598H397.684M361.655 216.627V252.656M361.655 216.627H397.684M361.655 252.656V288.684M361.655 252.656H397.684M361.655 288.684V324.713M361.655 288.684H397.684M361.655 324.713V360.742M361.655 324.713H397.684M361.655 360.742V396.77M361.655 360.742H397.684M361.655 396.77V432.799M361.655 396.77H397.684M361.655 432.799V468.828M361.655 432.799H397.684M361.655 468.828V504.857M361.655 468.828H397.684M361.655 504.857V540.885M361.655 504.857H397.684M361.655 540.885V576.914M361.655 540.885H397.684M361.655 576.914V612.943M361.655 576.914H397.684M361.655 612.943V648.971M361.655 612.943H397.684M361.655 648.971V685M361.655 648.971H397.684M361.655 685H397.684M397.684 0.45459V36.4833M397.684 0.45459H433.713M397.684 36.4833V72.512M397.684 36.4833H433.713M397.684 72.512V108.541M397.684 72.512H433.713M397.684 108.541V144.569M397.684 108.541H433.713M397.684 144.569V180.598M397.684 144.569H433.713M397.684 180.598V216.627M397.684 180.598H433.713M397.684 216.627V252.656M397.684 216.627H433.713M397.684 252.656V288.684M397.684 252.656H433.713M397.684 288.684V324.713M397.684 288.684H433.713M397.684 324.713V360.742M397.684 324.713H433.713M397.684 360.742V396.77M397.684 360.742H433.713M397.684 396.77V432.799M397.684 396.77H433.713M397.684 432.799V468.828M397.684 432.799H433.713M397.684 468.828V504.857M397.684 468.828H433.713M397.684 504.857V540.885M397.684 504.857H433.713M397.684 540.885V576.914M397.684 540.885H433.713M397.684 576.914V612.943M397.684 576.914H433.713M397.684 612.943V648.971M397.684 612.943H433.713M397.684 648.971V685M397.684 648.971H433.713M397.684 685H433.713M433.713 0.45459V36.4833M433.713 0.45459H469.741M433.713 36.4833V72.512M433.713 36.4833H469.741M433.713 72.512V108.541M433.713 72.512H469.741M433.713 108.541V144.569M433.713 108.541H469.741M433.713 144.569V180.598M433.713 144.569H469.741M433.713 180.598V216.627M433.713 180.598H469.741M433.713 216.627V252.656M433.713 216.627H469.741M433.713 252.656V288.684M433.713 252.656H469.741M433.713 288.684V324.713M433.713 288.684H469.741M433.713 324.713V360.742M433.713 324.713H469.741M433.713 360.742V396.77M433.713 360.742H469.741M433.713 396.77V432.799M433.713 396.77H469.741M433.713 432.799V468.828M433.713 432.799H469.741M433.713 468.828V504.857M433.713 468.828H469.741M433.713 504.857V540.885M433.713 504.857H469.741M433.713 540.885V576.914M433.713 540.885H469.741M433.713 576.914V612.943M433.713 576.914H469.741M433.713 612.943V648.971M433.713 612.943H469.741M433.713 648.971V685M433.713 648.971H469.741M433.713 685H469.741M469.741 0.45459V36.4833M469.741 0.45459H505.77M469.741 36.4833V72.512M469.741 36.4833H505.77M469.741 72.512V108.541M469.741 72.512H505.77M469.741 108.541V144.569M469.741 108.541H505.77M469.741 144.569V180.598M469.741 144.569H505.77M469.741 180.598V216.627M469.741 180.598H505.77M469.741 216.627V252.656M469.741 216.627H505.77M469.741 252.656V288.684M469.741 252.656H505.77M469.741 288.684V324.713M469.741 288.684H505.77M469.741 324.713V360.742M469.741 324.713H505.77M469.741 360.742V396.77M469.741 360.742H505.77M469.741 396.77V432.799M469.741 396.77H505.77M469.741 432.799V468.828M469.741 432.799H505.77M469.741 468.828V504.857M469.741 468.828H505.77M469.741 504.857V540.885M469.741 504.857H505.77M469.741 540.885V576.914M469.741 540.885H505.77M469.741 576.914V612.943M469.741 576.914H505.77M469.741 612.943V648.971M469.741 612.943H505.77M469.741 648.971V685M469.741 648.971H505.77M469.741 685H505.77M505.77 0.45459V36.4833M505.77 0.45459H541.799M505.77 36.4833V72.512M505.77 36.4833H541.799M505.77 72.512V108.541M505.77 72.512H541.799M505.77 108.541V144.569M505.77 108.541H541.799M505.77 144.569V180.598M505.77 144.569H541.799M505.77 180.598V216.627M505.77 180.598H541.799M505.77 216.627V252.656M505.77 216.627H541.799M505.77 252.656V288.684M505.77 252.656H541.799M505.77 288.684V324.713M505.77 288.684H541.799M505.77 324.713V360.742M505.77 324.713H541.799M505.77 360.742V396.77M505.77 360.742H541.799M505.77 396.77V432.799M505.77 396.77H541.799M505.77 432.799V468.828M505.77 432.799H541.799M505.77 468.828V504.857M505.77 468.828H541.799M505.77 504.857V540.885M505.77 504.857H541.799M505.77 540.885V576.914M505.77 540.885H541.799M505.77 576.914V612.943M505.77 576.914H541.799M505.77 612.943V648.971M505.77 612.943H541.799M505.77 648.971V685M505.77 648.971H541.799M505.77 685H541.799M541.799 0.45459V36.4833M541.799 0.45459H577.828M541.799 36.4833V72.512M541.799 36.4833H577.828M541.799 72.512V108.541M541.799 72.512H577.828M541.799 108.541V144.569M541.799 108.541H577.828M541.799 144.569V180.598M541.799 144.569H577.828M541.799 180.598V216.627M541.799 180.598H577.828M541.799 216.627V252.656M541.799 216.627H577.828M541.799 252.656V288.684M541.799 252.656H577.828M541.799 288.684V324.713M541.799 288.684H577.828M541.799 324.713V360.742M541.799 324.713H577.828M541.799 360.742V396.77M541.799 360.742H577.828M541.799 396.77V432.799M541.799 396.77H577.828M541.799 432.799V468.828M541.799 432.799H577.828M541.799 468.828V504.857M541.799 468.828H577.828M541.799 504.857V540.885M541.799 504.857H577.828M541.799 540.885V576.914M541.799 540.885H577.828M541.799 576.914V612.943M541.799 576.914H577.828M541.799 612.943V648.971M541.799 612.943H577.828M541.799 648.971V685M541.799 648.971H577.828M541.799 685H577.828M577.828 0.45459V36.4833M577.828 0.45459H613.856M577.828 36.4833V72.512M577.828 36.4833H613.856M577.828 72.512V108.541M577.828 72.512H613.856M577.828 108.541V144.569M577.828 108.541H613.856M577.828 144.569V180.598M577.828 144.569H613.856M577.828 180.598V216.627M577.828 180.598H613.856M577.828 216.627V252.656M577.828 216.627H613.856M577.828 252.656V288.684M577.828 252.656H613.856M577.828 288.684V324.713M577.828 288.684H613.856M577.828 324.713V360.742M577.828 324.713H613.856M577.828 360.742V396.77M577.828 360.742H613.856M577.828 396.77V432.799M577.828 396.77H613.856M577.828 432.799V468.828M577.828 432.799H613.856M577.828 468.828V504.857M577.828 468.828H613.856M577.828 504.857V540.885M577.828 504.857H613.856M577.828 540.885V576.914M577.828 540.885H613.856M577.828 576.914V612.943M577.828 576.914H613.856M577.828 612.943V648.971M577.828 612.943H613.856M577.828 648.971V685M577.828 648.971H613.856M577.828 685H613.856M613.856 0.45459V36.4833M613.856 0.45459H649.885M613.856 36.4833V72.512M613.856 36.4833H649.885M613.856 72.512V108.541M613.856 72.512H649.885M613.856 108.541V144.569M613.856 108.541H649.885M613.856 144.569V180.598M613.856 144.569H649.885M613.856 180.598V216.627M613.856 180.598H649.885M613.856 216.627V252.656M613.856 216.627H649.885M613.856 252.656V288.684M613.856 252.656H649.885M613.856 288.684V324.713M613.856 288.684H649.885M613.856 324.713V360.742M613.856 324.713H649.885M613.856 360.742V396.77M613.856 360.742H649.885M613.856 396.77V432.799M613.856 396.77H649.885M613.856 432.799V468.828M613.856 432.799H649.885M613.856 468.828V504.857M613.856 468.828H649.885M613.856 504.857V540.885M613.856 504.857H649.885M613.856 540.885V576.914M613.856 540.885H649.885M613.856 576.914V612.943M613.856 576.914H649.885M613.856 612.943V648.971M613.856 612.943H649.885M613.856 648.971V685M613.856 648.971H649.885M613.856 685H649.885M649.885 0.45459V36.4833M649.885 0.45459H685.914M649.885 36.4833V72.512M649.885 36.4833H685.914M649.885 72.512V108.541M649.885 72.512H685.914M649.885 108.541V144.569M649.885 108.541H685.914M649.885 144.569V180.598M649.885 144.569H685.914M649.885 180.598V216.627M649.885 180.598H685.914M649.885 216.627V252.656M649.885 216.627H685.914M649.885 252.656V288.684M649.885 252.656H685.914M649.885 288.684V324.713M649.885 288.684H685.914M649.885 324.713V360.742M649.885 324.713H685.914M649.885 360.742V396.77M649.885 360.742H685.914M649.885 396.77V432.799M649.885 396.77H685.914M649.885 432.799V468.828M649.885 432.799H685.914M649.885 468.828V504.857M649.885 468.828H685.914M649.885 504.857V540.885M649.885 504.857H685.914M649.885 540.885V576.914M649.885 540.885H685.914M649.885 576.914V612.943M649.885 576.914H685.914M649.885 612.943V648.971M649.885 612.943H685.914M649.885 648.971V685M649.885 648.971H685.914M649.885 685H685.914M685.914 0.45459V36.4833M685.914 0.45459H721.942M685.914 36.4833V72.512M685.914 36.4833H721.942M685.914 72.512V108.541M685.914 72.512H721.942M685.914 108.541V144.569M685.914 108.541H721.942M685.914 144.569V180.598M685.914 144.569H721.942M685.914 180.598V216.627M685.914 180.598H721.942M685.914 216.627V252.656M685.914 216.627H721.942M685.914 252.656V288.684M685.914 252.656H721.942M685.914 288.684V324.713M685.914 288.684H721.942M685.914 324.713V360.742M685.914 324.713H721.942M685.914 360.742V396.77M685.914 360.742H721.942M685.914 396.77V432.799M685.914 396.77H721.942M685.914 432.799V468.828M685.914 432.799H721.942M685.914 468.828V504.857M685.914 468.828H721.942M685.914 504.857V540.885M685.914 504.857H721.942M685.914 540.885V576.914M685.914 540.885H721.942M685.914 576.914V612.943M685.914 576.914H721.942M685.914 612.943V648.971M685.914 612.943H721.942M685.914 648.971V685M685.914 648.971H721.942M685.914 685H721.942M721.942 0.45459V36.4833M721.942 0.45459H757.971M721.942 36.4833V72.512M721.942 36.4833H757.971M721.942 72.512V108.541M721.942 72.512H757.971M721.942 108.541V144.569M721.942 108.541H757.971M721.942 144.569V180.598M721.942 144.569H757.971M721.942 180.598V216.627M721.942 180.598H757.971M721.942 216.627V252.656M721.942 216.627H757.971M721.942 252.656V288.684M721.942 252.656H757.971M721.942 288.684V324.713M721.942 288.684H757.971M721.942 324.713V360.742M721.942 324.713H757.971M721.942 360.742V396.77M721.942 360.742H757.971M721.942 396.77V432.799M721.942 396.77H757.971M721.942 432.799V468.828M721.942 432.799H757.971M721.942 468.828V504.857M721.942 468.828H757.971M721.942 504.857V540.885M721.942 504.857H757.971M721.942 540.885V576.914M721.942 540.885H757.971M721.942 576.914V612.943M721.942 576.914H757.971M721.942 612.943V648.971M721.942 612.943H757.971M721.942 648.971V685M721.942 648.971H757.971M721.942 685H757.971M757.971 0.45459V36.4833M757.971 0.45459H794M757.971 36.4833V72.512M757.971 36.4833H794M757.971 72.512V108.541M757.971 72.512H794M757.971 108.541V144.569M757.971 108.541H794M757.971 144.569V180.598M757.971 144.569H794M757.971 180.598V216.627M757.971 180.598H794M757.971 216.627V252.656M757.971 216.627H794M757.971 252.656V288.684M757.971 252.656H794M757.971 288.684V324.713M757.971 288.684H794M757.971 324.713V360.742M757.971 324.713H794M757.971 360.742V396.77M757.971 360.742H794M757.971 396.77V432.799M757.971 396.77H794M757.971 432.799V468.828M757.971 432.799H794M757.971 468.828V504.857M757.971 468.828H794M757.971 504.857V540.885M757.971 504.857H794M757.971 540.885V576.914M757.971 540.885H794M757.971 576.914V612.943M757.971 576.914H794M757.971 612.943V648.971M757.971 612.943H794M757.971 648.971V685M757.971 648.971H794M757.971 685H794M794 0.45459V36.4833M794 0.45459H830.028M794 36.4833V72.512M794 36.4833H830.028M794 72.512V108.541M794 72.512H830.028M794 108.541V144.569M794 108.541H830.028M794 144.569V180.598M794 144.569H830.028M794 180.598V216.627M794 180.598H830.028M794 216.627V252.656M794 216.627H830.028M794 252.656V288.684M794 252.656H830.028M794 288.684V324.713M794 288.684H830.028M794 324.713V360.742M794 324.713H830.028M794 360.742V396.77M794 360.742H830.028M794 396.77V432.799M794 396.77H830.028M794 432.799V468.828M794 432.799H830.028M794 468.828V504.857M794 468.828H830.028M794 504.857V540.885M794 504.857H830.028M794 540.885V576.914M794 540.885H830.028M794 576.914V612.943M794 576.914H830.028M794 612.943V648.971M794 612.943H830.028M794 648.971V685M794 648.971H830.028M794 685H830.028M830.028 0.45459V36.4833M830.028 0.45459H866.057M830.028 36.4833V72.512M830.028 36.4833H866.057M830.028 72.512V108.541M830.028 72.512H866.057M830.028 108.541V144.569M830.028 108.541H866.057M830.028 144.569V180.598M830.028 144.569H866.057M830.028 180.598V216.627M830.028 180.598H866.057M830.028 216.627V252.656M830.028 216.627H866.057M830.028 252.656V288.684M830.028 252.656H866.057M830.028 288.684V324.713M830.028 288.684H866.057M830.028 324.713V360.742M830.028 324.713H866.057M830.028 360.742V396.77M830.028 360.742H866.057M830.028 396.77V432.799M830.028 396.77H866.057M830.028 432.799V468.828M830.028 432.799H866.057M830.028 468.828V504.857M830.028 468.828H866.057M830.028 504.857V540.885M830.028 504.857H866.057M830.028 540.885V576.914M830.028 540.885H866.057M830.028 576.914V612.943M830.028 576.914H866.057M830.028 612.943V648.971M830.028 612.943H866.057M830.028 648.971V685M830.028 648.971H866.057M830.028 685H866.057M866.057 0.45459V36.4833M866.057 0.45459H902.086M866.057 36.4833V72.512M866.057 36.4833H902.086M866.057 72.512V108.541M866.057 72.512H902.086M866.057 108.541V144.569M866.057 108.541H902.086M866.057 144.569V180.598M866.057 144.569H902.086M866.057 180.598V216.627M866.057 180.598H902.086M866.057 216.627V252.656M866.057 216.627H902.086M866.057 252.656V288.684M866.057 252.656H902.086M866.057 288.684V324.713M866.057 288.684H902.086M866.057 324.713V360.742M866.057 324.713H902.086M866.057 360.742V396.77M866.057 360.742H902.086M866.057 396.77V432.799M866.057 396.77H902.086M866.057 432.799V468.828M866.057 432.799H902.086M866.057 468.828V504.857M866.057 468.828H902.086M866.057 504.857V540.885M866.057 504.857H902.086M866.057 540.885V576.914M866.057 540.885H902.086M866.057 576.914V612.943M866.057 576.914H902.086M866.057 612.943V648.971M866.057 612.943H902.086M866.057 648.971V685M866.057 648.971H902.086M866.057 685H902.086M902.086 0.45459V36.4833M902.086 0.45459H938.115M902.086 36.4833V72.512M902.086 36.4833H938.115M902.086 72.512V108.541M902.086 72.512H938.115M902.086 108.541V144.569M902.086 108.541H938.115M902.086 144.569V180.598M902.086 144.569H938.115M902.086 180.598V216.627M902.086 180.598H938.115M902.086 216.627V252.656M902.086 216.627H938.115M902.086 252.656V288.684M902.086 252.656H938.115M902.086 288.684V324.713M902.086 288.684H938.115M902.086 324.713V360.742M902.086 324.713H938.115M902.086 360.742V396.77M902.086 360.742H938.115M902.086 396.77V432.799M902.086 396.77H938.115M902.086 432.799V468.828M902.086 432.799H938.115M902.086 468.828V504.857M902.086 468.828H938.115M902.086 504.857V540.885M902.086 504.857H938.115M902.086 540.885V576.914M902.086 540.885H938.115M902.086 576.914V612.943M902.086 576.914H938.115M902.086 612.943V648.971M902.086 612.943H938.115M902.086 648.971V685M902.086 648.971H938.115M902.086 685H938.115M938.115 0.45459V36.4833M938.115 0.45459H974.143M938.115 36.4833V72.512M938.115 36.4833H974.143M938.115 72.512V108.541M938.115 72.512H974.143M938.115 108.541V144.569M938.115 108.541H974.143M938.115 144.569V180.598M938.115 144.569H974.143M938.115 180.598V216.627M938.115 180.598H974.143M938.115 216.627V252.656M938.115 216.627H974.143M938.115 252.656V288.684M938.115 252.656H974.143M938.115 288.684V324.713M938.115 288.684H974.143M938.115 324.713V360.742M938.115 324.713H974.143M938.115 360.742V396.77M938.115 360.742H974.143M938.115 396.77V432.799M938.115 396.77H974.143M938.115 432.799V468.828M938.115 432.799H974.143M938.115 468.828V504.857M938.115 468.828H974.143M938.115 504.857V540.885M938.115 504.857H974.143M938.115 540.885V576.914M938.115 540.885H974.143M938.115 576.914V612.943M938.115 576.914H974.143M938.115 612.943V648.971M938.115 612.943H974.143M938.115 648.971V685M938.115 648.971H974.143M938.115 685H974.143M974.143 0.45459V36.4833M974.143 0.45459H1010.17M974.143 36.4833V72.512M974.143 36.4833H1010.17M974.143 72.512V108.541M974.143 72.512H1010.17M974.143 108.541V144.569M974.143 108.541H1010.17M974.143 144.569V180.598M974.143 144.569H1010.17M974.143 180.598V216.627M974.143 180.598H1010.17M974.143 216.627V252.656M974.143 216.627H1010.17M974.143 252.656V288.684M974.143 252.656H1010.17M974.143 288.684V324.713M974.143 288.684H1010.17M974.143 324.713V360.742M974.143 324.713H1010.17M974.143 360.742V396.77M974.143 360.742H1010.17M974.143 396.77V432.799M974.143 396.77H1010.17M974.143 432.799V468.828M974.143 432.799H1010.17M974.143 468.828V504.857M974.143 468.828H1010.17M974.143 504.857V540.885M974.143 504.857H1010.17M974.143 540.885V576.914M974.143 540.885H1010.17M974.143 576.914V612.943M974.143 576.914H1010.17M974.143 612.943V648.971M974.143 612.943H1010.17M974.143 648.971V685M974.143 648.971H1010.17M974.143 685H1010.17M1010.17 0.45459V36.4833M1010.17 0.45459H1046.2M1010.17 36.4833V72.512M1010.17 36.4833H1046.2M1010.17 72.512V108.541M1010.17 72.512H1046.2M1010.17 108.541V144.569M1010.17 108.541H1046.2M1010.17 144.569V180.598M1010.17 144.569H1046.2M1010.17 180.598V216.627M1010.17 180.598H1046.2M1010.17 216.627V252.656M1010.17 216.627H1046.2M1010.17 252.656V288.684M1010.17 252.656H1046.2M1010.17 288.684V324.713M1010.17 288.684H1046.2M1010.17 324.713V360.742M1010.17 324.713H1046.2M1010.17 360.742V396.77M1010.17 360.742H1046.2M1010.17 396.77V432.799M1010.17 396.77H1046.2M1010.17 432.799V468.828M1010.17 432.799H1046.2M1010.17 468.828V504.857M1010.17 468.828H1046.2M1010.17 504.857V540.885M1010.17 504.857H1046.2M1010.17 540.885V576.914M1010.17 540.885H1046.2M1010.17 576.914V612.943M1010.17 576.914H1046.2M1010.17 612.943V648.971M1010.17 612.943H1046.2M1010.17 648.971V685M1010.17 648.971H1046.2M1010.17 685H1046.2M1046.2 0.45459V36.4833M1046.2 0.45459H1082.23M1046.2 36.4833V72.512M1046.2 36.4833H1082.23M1046.2 72.512V108.541M1046.2 72.512H1082.23M1046.2 108.541V144.569M1046.2 108.541H1082.23M1046.2 144.569V180.598M1046.2 144.569H1082.23M1046.2 180.598V216.627M1046.2 180.598H1082.23M1046.2 216.627V252.656M1046.2 216.627H1082.23M1046.2 252.656V288.684M1046.2 252.656H1082.23M1046.2 288.684V324.713M1046.2 288.684H1082.23M1046.2 324.713V360.742M1046.2 324.713H1082.23M1046.2 360.742V396.77M1046.2 360.742H1082.23M1046.2 396.77V432.799M1046.2 396.77H1082.23M1046.2 432.799V468.828M1046.2 432.799H1082.23M1046.2 468.828V504.857M1046.2 468.828H1082.23M1046.2 504.857V540.885M1046.2 504.857H1082.23M1046.2 540.885V576.914M1046.2 540.885H1082.23M1046.2 576.914V612.943M1046.2 576.914H1082.23M1046.2 612.943V648.971M1046.2 612.943H1082.23M1046.2 648.971V685M1046.2 648.971H1082.23M1046.2 685H1082.23M1082.23 0.45459V36.4833M1082.23 0.45459H1118.26M1082.23 36.4833V72.512M1082.23 36.4833H1118.26M1082.23 72.512V108.541M1082.23 72.512H1118.26M1082.23 108.541V144.569M1082.23 108.541H1118.26M1082.23 144.569V180.598M1082.23 144.569H1118.26M1082.23 180.598V216.627M1082.23 180.598H1118.26M1082.23 216.627V252.656M1082.23 216.627H1118.26M1082.23 252.656V288.684M1082.23 252.656H1118.26M1082.23 288.684V324.713M1082.23 288.684H1118.26M1082.23 324.713V360.742M1082.23 324.713H1118.26M1082.23 360.742V396.77M1082.23 360.742H1118.26M1082.23 396.77V432.799M1082.23 396.77H1118.26M1082.23 432.799V468.828M1082.23 432.799H1118.26M1082.23 468.828V504.857M1082.23 468.828H1118.26M1082.23 504.857V540.885M1082.23 504.857H1118.26M1082.23 540.885V576.914M1082.23 540.885H1118.26M1082.23 576.914V612.943M1082.23 576.914H1118.26M1082.23 612.943V648.971M1082.23 612.943H1118.26M1082.23 648.971V685M1082.23 648.971H1118.26M1082.23 685H1118.26M1118.26 0.45459V36.4833M1118.26 0.45459H1154.29M1118.26 36.4833V72.512M1118.26 36.4833H1154.29M1118.26 72.512V108.541M1118.26 72.512H1154.29M1118.26 108.541V144.569M1118.26 108.541H1154.29M1118.26 144.569V180.598M1118.26 144.569H1154.29M1118.26 180.598V216.627M1118.26 180.598H1154.29M1118.26 216.627V252.656M1118.26 216.627H1154.29M1118.26 252.656V288.684M1118.26 252.656H1154.29M1118.26 288.684V324.713M1118.26 288.684H1154.29M1118.26 324.713V360.742M1118.26 324.713H1154.29M1118.26 360.742V396.77M1118.26 360.742H1154.29M1118.26 396.77V432.799M1118.26 396.77H1154.29M1118.26 432.799V468.828M1118.26 432.799H1154.29M1118.26 468.828V504.857M1118.26 468.828H1154.29M1118.26 504.857V540.885M1118.26 504.857H1154.29M1118.26 540.885V576.914M1118.26 540.885H1154.29M1118.26 576.914V612.943M1118.26 576.914H1154.29M1118.26 612.943V648.971M1118.26 612.943H1154.29M1118.26 648.971V685M1118.26 648.971H1154.29M1118.26 685H1154.29M1154.29 0.45459V36.4833M1154.29 0.45459H1190.32M1154.29 36.4833V72.512M1154.29 36.4833H1190.32M1154.29 72.512V108.541M1154.29 72.512H1190.32M1154.29 108.541V144.569M1154.29 108.541H1190.32M1154.29 144.569V180.598M1154.29 144.569H1190.32M1154.29 180.598V216.627M1154.29 180.598H1190.32M1154.29 216.627V252.656M1154.29 216.627H1190.32M1154.29 252.656V288.684M1154.29 252.656H1190.32M1154.29 288.684V324.713M1154.29 288.684H1190.32M1154.29 324.713V360.742M1154.29 324.713H1190.32M1154.29 360.742V396.77M1154.29 360.742H1190.32M1154.29 396.77V432.799M1154.29 396.77H1190.32M1154.29 432.799V468.828M1154.29 432.799H1190.32M1154.29 468.828V504.857M1154.29 468.828H1190.32M1154.29 504.857V540.885M1154.29 504.857H1190.32M1154.29 540.885V576.914M1154.29 540.885H1190.32M1154.29 576.914V612.943M1154.29 576.914H1190.32M1154.29 612.943V648.971M1154.29 612.943H1190.32M1154.29 648.971V685M1154.29 648.971H1190.32M1154.29 685H1190.32M1190.32 0.45459V36.4833M1190.32 0.45459H1226.34M1190.32 36.4833V72.512M1190.32 36.4833H1226.34M1190.32 72.512V108.541M1190.32 72.512H1226.34M1190.32 108.541V144.569M1190.32 108.541H1226.34M1190.32 144.569V180.598M1190.32 144.569H1226.34M1190.32 180.598V216.627M1190.32 180.598H1226.34M1190.32 216.627V252.656M1190.32 216.627H1226.34M1190.32 252.656V288.684M1190.32 252.656H1226.34M1190.32 288.684V324.713M1190.32 288.684H1226.34M1190.32 324.713V360.742M1190.32 324.713H1226.34M1190.32 360.742V396.77M1190.32 360.742H1226.34M1190.32 396.77V432.799M1190.32 396.77H1226.34M1190.32 432.799V468.828M1190.32 432.799H1226.34M1190.32 468.828V504.857M1190.32 468.828H1226.34M1190.32 504.857V540.885M1190.32 504.857H1226.34M1190.32 540.885V576.914M1190.32 540.885H1226.34M1190.32 576.914V612.943M1190.32 576.914H1226.34M1190.32 612.943V648.971M1190.32 612.943H1226.34M1190.32 648.971V685M1190.32 648.971H1226.34M1190.32 685H1226.34M1226.34 0.45459V36.4833M1226.34 0.45459H1262.37M1226.34 36.4833V72.512M1226.34 36.4833H1262.37M1226.34 72.512V108.541M1226.34 72.512H1262.37M1226.34 108.541V144.569M1226.34 108.541H1262.37M1226.34 144.569V180.598M1226.34 144.569H1262.37M1226.34 180.598V216.627M1226.34 180.598H1262.37M1226.34 216.627V252.656M1226.34 216.627H1262.37M1226.34 252.656V288.684M1226.34 252.656H1262.37M1226.34 288.684V324.713M1226.34 288.684H1262.37M1226.34 324.713V360.742M1226.34 324.713H1262.37M1226.34 360.742V396.77M1226.34 360.742H1262.37M1226.34 396.77V432.799M1226.34 396.77H1262.37M1226.34 432.799V468.828M1226.34 432.799H1262.37M1226.34 468.828V504.857M1226.34 468.828H1262.37M1226.34 504.857V540.885M1226.34 504.857H1262.37M1226.34 540.885V576.914M1226.34 540.885H1262.37M1226.34 576.914V612.943M1226.34 576.914H1262.37M1226.34 612.943V648.971M1226.34 612.943H1262.37M1226.34 648.971V685M1226.34 648.971H1262.37M1226.34 685H1262.37M1262.37 0.45459V36.4833M1262.37 0.45459H1298.4M1262.37 36.4833V72.512M1262.37 36.4833H1298.4M1262.37 72.512V108.541M1262.37 72.512H1298.4M1262.37 108.541V144.569M1262.37 108.541H1298.4M1262.37 144.569V180.598M1262.37 144.569H1298.4M1262.37 180.598V216.627M1262.37 180.598H1298.4M1262.37 216.627V252.656M1262.37 216.627H1298.4M1262.37 252.656V288.684M1262.37 252.656H1298.4M1262.37 288.684V324.713M1262.37 288.684H1298.4M1262.37 324.713V360.742M1262.37 324.713H1298.4M1262.37 360.742V396.77M1262.37 360.742H1298.4M1262.37 396.77V432.799M1262.37 396.77H1298.4M1262.37 432.799V468.828M1262.37 432.799H1298.4M1262.37 468.828V504.857M1262.37 468.828H1298.4M1262.37 504.857V540.885M1262.37 504.857H1298.4M1262.37 540.885V576.914M1262.37 540.885H1298.4M1262.37 576.914V612.943M1262.37 576.914H1298.4M1262.37 612.943V648.971M1262.37 612.943H1298.4M1262.37 648.971V685M1262.37 648.971H1298.4M1262.37 685H1298.4M1298.4 0.45459V36.4833M1298.4 0.45459H1334.43M1298.4 36.4833V72.512M1298.4 36.4833H1334.43M1298.4 72.512V108.541M1298.4 72.512H1334.43M1298.4 108.541V144.569M1298.4 108.541H1334.43M1298.4 144.569V180.598M1298.4 144.569H1334.43M1298.4 180.598V216.627M1298.4 180.598H1334.43M1298.4 216.627V252.656M1298.4 216.627H1334.43M1298.4 252.656V288.684M1298.4 252.656H1334.43M1298.4 288.684V324.713M1298.4 288.684H1334.43M1298.4 324.713V360.742M1298.4 324.713H1334.43M1298.4 360.742V396.77M1298.4 360.742H1334.43M1298.4 396.77V432.799M1298.4 396.77H1334.43M1298.4 432.799V468.828M1298.4 432.799H1334.43M1298.4 468.828V504.857M1298.4 468.828H1334.43M1298.4 504.857V540.885M1298.4 504.857H1334.43M1298.4 540.885V576.914M1298.4 540.885H1334.43M1298.4 576.914V612.943M1298.4 576.914H1334.43M1298.4 612.943V648.971M1298.4 612.943H1334.43M1298.4 648.971V685M1298.4 648.971H1334.43M1298.4 685H1334.43M1334.43 0.45459V36.4833M1334.43 0.45459H1370.46M1334.43 36.4833V72.512M1334.43 36.4833H1370.46M1334.43 72.512V108.541M1334.43 72.512H1370.46M1334.43 108.541V144.569M1334.43 108.541H1370.46M1334.43 144.569V180.598M1334.43 144.569H1370.46M1334.43 180.598V216.627M1334.43 180.598H1370.46M1334.43 216.627V252.656M1334.43 216.627H1370.46M1334.43 252.656V288.684M1334.43 252.656H1370.46M1334.43 288.684V324.713M1334.43 288.684H1370.46M1334.43 324.713V360.742M1334.43 324.713H1370.46M1334.43 360.742V396.77M1334.43 360.742H1370.46M1334.43 396.77V432.799M1334.43 396.77H1370.46M1334.43 432.799V468.828M1334.43 432.799H1370.46M1334.43 468.828V504.857M1334.43 468.828H1370.46M1334.43 504.857V540.885M1334.43 504.857H1370.46M1334.43 540.885V576.914M1334.43 540.885H1370.46M1334.43 576.914V612.943M1334.43 576.914H1370.46M1334.43 612.943V648.971M1334.43 612.943H1370.46M1334.43 648.971V685M1334.43 648.971H1370.46M1334.43 685H1370.46M1370.46 0.45459V36.4833M1370.46 0.45459H1406.49M1370.46 36.4833V72.512M1370.46 36.4833H1406.49M1370.46 72.512V108.541M1370.46 72.512H1406.49M1370.46 108.541V144.569M1370.46 108.541H1406.49M1370.46 144.569V180.598M1370.46 144.569H1406.49M1370.46 180.598V216.627M1370.46 180.598H1406.49M1370.46 216.627V252.656M1370.46 216.627H1406.49M1370.46 252.656V288.684M1370.46 252.656H1406.49M1370.46 288.684V324.713M1370.46 288.684H1406.49M1370.46 324.713V360.742M1370.46 324.713H1406.49M1370.46 360.742V396.77M1370.46 360.742H1406.49M1370.46 396.77V432.799M1370.46 396.77H1406.49M1370.46 432.799V468.828M1370.46 432.799H1406.49M1370.46 468.828V504.857M1370.46 468.828H1406.49M1370.46 504.857V540.885M1370.46 504.857H1406.49M1370.46 540.885V576.914M1370.46 540.885H1406.49M1370.46 576.914V612.943M1370.46 576.914H1406.49M1370.46 612.943V648.971M1370.46 612.943H1406.49M1370.46 648.971V685M1370.46 648.971H1406.49M1370.46 685H1406.49M1406.49 0.45459V36.4833M1406.49 0.45459H1442.52M1406.49 36.4833V72.512M1406.49 36.4833H1442.52M1406.49 72.512V108.541M1406.49 72.512H1442.52M1406.49 108.541V144.569M1406.49 108.541H1442.52M1406.49 144.569V180.598M1406.49 144.569H1442.52M1406.49 180.598V216.627M1406.49 180.598H1442.52M1406.49 216.627V252.656M1406.49 216.627H1442.52M1406.49 252.656V288.684M1406.49 252.656H1442.52M1406.49 288.684V324.713M1406.49 288.684H1442.52M1406.49 324.713V360.742M1406.49 324.713H1442.52M1406.49 360.742V396.77M1406.49 360.742H1442.52M1406.49 396.77V432.799M1406.49 396.77H1442.52M1406.49 432.799V468.828M1406.49 432.799H1442.52M1406.49 468.828V504.857M1406.49 468.828H1442.52M1406.49 504.857V540.885M1406.49 504.857H1442.52M1406.49 540.885V576.914M1406.49 540.885H1442.52M1406.49 576.914V612.943M1406.49 576.914H1442.52M1406.49 612.943V648.971M1406.49 612.943H1442.52M1406.49 648.971V685M1406.49 648.971H1442.52M1406.49 685H1442.52M1442.52 0.45459V36.4833M1442.52 0.45459H1478.55M1442.52 36.4833V72.512M1442.52 36.4833H1478.55M1442.52 72.512V108.541M1442.52 72.512H1478.55M1442.52 108.541V144.569M1442.52 108.541H1478.55M1442.52 144.569V180.598M1442.52 144.569H1478.55M1442.52 180.598V216.627M1442.52 180.598H1478.55M1442.52 216.627V252.656M1442.52 216.627H1478.55M1442.52 252.656V288.684M1442.52 252.656H1478.55M1442.52 288.684V324.713M1442.52 288.684H1478.55M1442.52 324.713V360.742M1442.52 324.713H1478.55M1442.52 360.742V396.77M1442.52 360.742H1478.55M1442.52 396.77V432.799M1442.52 396.77H1478.55M1442.52 432.799V468.828M1442.52 432.799H1478.55M1442.52 468.828V504.857M1442.52 468.828H1478.55M1442.52 504.857V540.885M1442.52 504.857H1478.55M1442.52 540.885V576.914M1442.52 540.885H1478.55M1442.52 576.914V612.943M1442.52 576.914H1478.55M1442.52 612.943V648.971M1442.52 612.943H1478.55M1442.52 648.971V685M1442.52 648.971H1478.55M1442.52 685H1478.55M1478.55 0.45459V36.4833M1478.55 0.45459H1514.57M1478.55 36.4833V72.512M1478.55 36.4833H1514.57M1478.55 72.512V108.541M1478.55 72.512H1514.57M1478.55 108.541V144.569M1478.55 108.541H1514.57M1478.55 144.569V180.598M1478.55 144.569H1514.57M1478.55 180.598V216.627M1478.55 180.598H1514.57M1478.55 216.627V252.656M1478.55 216.627H1514.57M1478.55 252.656V288.684M1478.55 252.656H1514.57M1478.55 288.684V324.713M1478.55 288.684H1514.57M1478.55 324.713V360.742M1478.55 324.713H1514.57M1478.55 360.742V396.77M1478.55 360.742H1514.57M1478.55 396.77V432.799M1478.55 396.77H1514.57M1478.55 432.799V468.828M1478.55 432.799H1514.57M1478.55 468.828V504.857M1478.55 468.828H1514.57M1478.55 504.857V540.885M1478.55 504.857H1514.57M1478.55 540.885V576.914M1478.55 540.885H1514.57M1478.55 576.914V612.943M1478.55 576.914H1514.57M1478.55 612.943V648.971M1478.55 612.943H1514.57M1478.55 648.971V685M1478.55 648.971H1514.57M1478.55 685H1514.57M1514.57 0.45459V36.4833M1514.57 0.45459H1550.6M1514.57 36.4833V72.512M1514.57 36.4833H1550.6M1514.57 72.512V108.541M1514.57 72.512H1550.6M1514.57 108.541V144.569M1514.57 108.541H1550.6M1514.57 144.569V180.598M1514.57 144.569H1550.6M1514.57 180.598V216.627M1514.57 180.598H1550.6M1514.57 216.627V252.656M1514.57 216.627H1550.6M1514.57 252.656V288.684M1514.57 252.656H1550.6M1514.57 288.684V324.713M1514.57 288.684H1550.6M1514.57 324.713V360.742M1514.57 324.713H1550.6M1514.57 360.742V396.77M1514.57 360.742H1550.6M1514.57 396.77V432.799M1514.57 396.77H1550.6M1514.57 432.799V468.828M1514.57 432.799H1550.6M1514.57 468.828V504.857M1514.57 468.828H1550.6M1514.57 504.857V540.885M1514.57 504.857H1550.6M1514.57 540.885V576.914M1514.57 540.885H1550.6M1514.57 576.914V612.943M1514.57 576.914H1550.6M1514.57 612.943V648.971M1514.57 612.943H1550.6M1514.57 648.971V685M1514.57 648.971H1550.6M1514.57 685H1550.6M1550.6 0.45459V36.4833M1550.6 0.45459H1586.63V36.4833M1550.6 36.4833V72.512M1550.6 36.4833H1586.63M1550.6 72.512V108.541M1550.6 72.512H1586.63M1550.6 108.541V144.569M1550.6 108.541H1586.63M1550.6 144.569V180.598M1550.6 144.569H1586.63M1550.6 180.598V216.627M1550.6 180.598H1586.63M1550.6 216.627V252.656M1550.6 216.627H1586.63M1550.6 252.656V288.684M1550.6 252.656H1586.63M1550.6 288.684V324.713M1550.6 288.684H1586.63M1550.6 324.713V360.742M1550.6 324.713H1586.63M1550.6 360.742V396.77M1550.6 360.742H1586.63M1550.6 396.77V432.799M1550.6 396.77H1586.63M1550.6 432.799V468.828M1550.6 432.799H1586.63M1550.6 468.828V504.857M1550.6 468.828H1586.63M1550.6 504.857V540.885M1550.6 504.857H1586.63M1550.6 540.885V576.914M1550.6 540.885H1586.63M1550.6 576.914V612.943M1550.6 576.914H1586.63M1550.6 612.943V648.971M1550.6 612.943H1586.63M1550.6 648.971V685M1550.6 648.971H1586.63M1550.6 685H1586.63V648.971M1586.63 36.4833V72.512M1586.63 72.512V108.541M1586.63 108.541V144.569M1586.63 144.569V180.598M1586.63 180.598V216.627M1586.63 216.627V252.656M1586.63 252.656V288.684M1586.63 288.684V324.713M1586.63 324.713V360.742M1586.63 360.742V396.77M1586.63 396.77V432.799M1586.63 432.799V468.828M1586.63 468.828V504.857M1586.63 504.857V540.885M1586.63 540.885V576.914M1586.63 576.914V612.943M1586.63 612.943V648.971" stroke="url(#paint0_radial_458_5802)" stroke-width="0.900718"/>
</g>
<defs>
<radialGradient id="paint0_radial_458_5802" cx="0" cy="0" r="1" gradientUnits="userSpaceOnUse" gradientTransform="translate(794 342.727) rotate(90) scale(342.273 640.064)">
<stop stop-color="white"/>
<stop offset="1" stop-color="white" stop-opacity="0.2"/>
</radialGradient>
</defs>
</svg>
