<svg width="32" height="24" viewBox="0 0 32 24" fill="none" xmlns="http://www.w3.org/2000/svg">
<g clip-path="url(#clip0_458_5871)">
<path d="M26.7959 2.00165C24.7712 1.05428 22.6291 0.381129 20.4264 0C20.152 0.49604 19.8315 1.16322 19.6104 1.69399C17.2355 1.33688 14.8824 1.33688 12.5512 1.69399C12.3302 1.16334 12.0024 0.49604 11.7255 0C9.52063 0.381305 7.37675 1.05617 5.35103 2.00659C1.32 8.09813 0.227211 14.0382 0.773543 19.8942C3.44719 21.8908 6.03823 23.1037 8.5856 23.8974C9.21869 23.0268 9.77833 22.105 10.2587 21.1417C9.34411 20.7935 8.46238 20.3644 7.62404 19.8595C7.84465 19.6959 8.06008 19.5255 8.26999 19.3485C13.35 21.7246 18.8698 21.7246 23.8893 19.3485C24.1001 19.5243 24.3155 19.6947 24.5351 19.8595C23.6954 20.3657 22.812 20.7957 21.8956 21.1442C22.3787 22.1115 22.9374 23.0341 23.5687 23.8998C26.1185 23.1062 28.712 21.8933 31.3856 19.8942C32.0267 13.1057 30.2905 7.22014 26.7959 2.00165ZM10.9509 16.2929C9.42585 16.2929 8.17519 14.8691 8.17519 13.1355C8.17519 11.4018 9.39919 9.97568 10.9509 9.97568C12.5027 9.97568 13.7532 11.3993 13.7265 13.1355C13.729 14.8691 12.5027 16.2929 10.9509 16.2929ZM21.2083 16.2929C19.6833 16.2929 18.4327 14.8691 18.4327 13.1355C18.4327 11.4018 19.6566 9.97568 21.2083 9.97568C22.7601 9.97568 24.0106 11.3993 23.984 13.1355C23.984 14.8691 22.7601 16.2929 21.2083 16.2929Z" fill="white"/>
</g>
<defs>
<clipPath id="clip0_458_5871">
<rect width="30.88" height="24" fill="white" transform="translate(0.639648)"/>
</clipPath>
</defs>
</svg>
