<svg width="53" height="24" viewBox="0 0 53 24" fill="none" xmlns="http://www.w3.org/2000/svg">
<path d="M20.125 10.7496L20.7159 9.37091C20.2701 9.17984 19.7594 9.21614 19.3451 9.46834L20.125 10.7496ZM31.7934 15.7505L31.2026 17.1292C31.6923 17.3391 32.2566 17.2734 32.685 16.9567L31.7934 15.7505ZM51.8541 2.7883C52.5203 2.29589 52.6612 1.35665 52.1688 0.690445C51.6764 0.0242434 50.7371 -0.116643 50.0709 0.375767L51.8541 2.7883ZM1.73599 23.6994L20.9049 12.0309L19.3451 9.46834L0.176115 21.1368L1.73599 23.6994ZM19.5341 12.1283L31.2026 17.1292L32.3843 14.3718L20.7159 9.37091L19.5341 12.1283ZM32.685 16.9567L51.8541 2.7883L50.0709 0.375767L30.9019 14.5442L32.685 16.9567Z" fill="#008B57"/>
</svg>
