<svg width="27" height="24" viewBox="0 0 27 24" fill="none" xmlns="http://www.w3.org/2000/svg">
<g clip-path="url(#clip0_458_5873)">
<path d="M5.07758 0.0605469H22.1176V3.44951H26.9631L25.9477 6.83931H25.0878V20.5524C25.519 20.5524 25.869 20.8967 25.869 21.3221V22.2465H26.0254C26.4574 22.2465 26.8075 22.5916 26.8075 23.017V23.9414H18.0525V23.017C18.0525 22.5916 18.4025 22.2465 18.8346 22.2465H18.991V21.3221C18.991 20.9521 19.2558 20.6434 19.6083 20.569L19.5918 13.0023C19.3154 9.97917 16.7374 7.60979 13.5976 7.60979C10.4577 7.60979 7.87979 9.97917 7.60338 13.0023L7.58683 20.5623C8.00393 20.6236 8.51703 20.9405 8.51703 21.3221V22.2465H8.67345C9.10462 22.2465 9.45469 22.5916 9.45469 23.017V23.9414H0.700481V23.017C0.700481 22.5916 1.05055 22.2465 1.48172 22.2465H1.63814V21.3221C1.63814 20.8967 1.98821 20.5524 2.42021 20.5524V6.83931H1.56034L0.544067 3.44951H5.07758V0.0605469Z" fill="white"/>
<path d="M22.1176 0.0601821H22.1747V0.00390625H22.1176V0.0601821ZM5.07755 0.0601821V0.00390625H5.02045V0.0601821H5.07755ZM22.1176 3.44915H22.0604V3.50542H22.1176V3.44915ZM26.9631 3.44915L27.0185 3.4657L27.04 3.39287H26.9631V3.44915ZM25.9476 6.83894V6.89522H25.9898L26.0022 6.85466L25.9476 6.83894ZM25.0878 6.83894V6.78266H25.0307V6.83894H25.0878ZM25.0878 20.552H25.0307V20.6083H25.0878V20.552ZM25.869 22.2461H25.8119V22.3024H25.869V22.2461ZM26.8075 23.941V23.9973H26.8638V23.941H26.8075ZM18.0524 23.941H17.9953V23.9973H18.0524V23.941ZM18.9909 22.2461V22.3024H19.048V22.2461H18.9909ZM19.6083 20.5686L19.6207 20.6232L19.6654 20.6141V20.5686H19.6083ZM19.5918 13.002H19.6489V12.9995L19.648 12.997L19.5918 13.002ZM7.60334 13.002L7.54624 12.997V12.9995V13.002H7.60334ZM7.58679 20.562H7.52969L7.52886 20.6108L7.57769 20.6182L7.58679 20.562ZM8.517 22.2461H8.4599V22.3024H8.517V22.2461ZM9.45465 23.941V23.9973H9.51176V23.941H9.45465ZM0.700447 23.941H0.643344V23.9973H0.700447V23.941ZM1.6381 22.2461V22.3024H1.69521V22.2461H1.6381ZM2.42017 20.552V20.6083H2.47727V20.552H2.42017ZM2.42017 6.83894H2.47727V6.78266H2.42017V6.83894ZM1.56031 6.83894L1.50569 6.85466L1.51727 6.89522H1.56031V6.83894ZM0.544033 3.44915V3.3937H0.467896L0.489413 3.4657L0.544033 3.44915ZM5.07755 3.44915V3.50542H5.13465V3.44915H5.07755ZM22.1176 0.00390625H5.07755V0.11563H22.1176V0.00390625ZM22.1747 3.44915V0.0601821H22.0604V3.44915H22.1747ZM26.9631 3.39287H22.1176V3.50542H26.9631V3.39287ZM26.0022 6.85466L27.0185 3.4657L26.9084 3.43342L25.8922 6.82322L26.0022 6.85466ZM25.0878 6.89522H25.9476V6.78266H25.0878V6.89522ZM25.1449 20.552V6.83894H25.0307V20.552H25.1449ZM25.9261 21.3217C25.9261 20.8657 25.5504 20.4958 25.0878 20.4958V20.6083C25.4875 20.6083 25.8119 20.9278 25.8119 21.3217H25.9261ZM25.9261 22.2461V21.3217H25.8119V22.2461H25.9261ZM26.0254 22.1907H25.869V22.3024H26.0254V22.1907ZM26.8638 23.0166C26.8638 22.5606 26.4889 22.1907 26.0254 22.1907V22.3024C26.426 22.3024 26.7504 22.6227 26.7504 23.0166H26.8638ZM26.8638 23.941V23.0166H26.7504V23.941H26.8638ZM22.1176 23.9973H26.8075V23.8847H22.1176V23.9973ZM19.6158 23.9973H22.1176V23.8847H19.6158V23.9973ZM18.0524 23.9973H19.6158V23.8847H18.0524V23.9973ZM17.9953 23.0166V23.941H18.1096V23.0166H17.9953ZM18.8345 22.1907C18.3711 22.1907 17.9953 22.5606 17.9953 23.0166H18.1096C18.1096 22.6227 18.434 22.3024 18.8345 22.3024V22.1907ZM18.9909 22.1907H18.8345V22.3024H18.9909V22.1907ZM18.9338 21.3217V22.2461H19.048V21.3217H18.9338ZM19.5967 20.514C19.2177 20.5934 18.9338 20.9253 18.9338 21.3217H19.048C19.048 20.9791 19.293 20.6927 19.6207 20.6232L19.5967 20.514ZM19.5347 13.002L19.5512 20.5686H19.6654L19.6489 13.002H19.5347ZM13.5976 7.6657C16.7068 7.6657 19.2607 10.0127 19.5347 13.0069L19.648 12.997C19.3691 9.94487 16.7672 7.55315 13.5976 7.55315V7.6657ZM7.66045 13.0069C7.93438 10.0127 10.4875 7.6657 13.5976 7.6657V7.55315C10.4279 7.55315 7.82596 9.94487 7.54624 12.997L7.66045 13.0069ZM7.6439 20.562L7.66045 13.002H7.54624L7.52969 20.562H7.6439ZM8.5741 21.3217C8.5741 21.1057 8.42928 20.9162 8.24224 20.7771C8.05438 20.6365 7.81272 20.5388 7.59507 20.5065L7.57769 20.6182C7.77714 20.648 8.00059 20.7374 8.17355 20.8665C8.34817 20.9965 8.4599 21.1562 8.4599 21.3217H8.5741ZM8.5741 22.2461V21.3217H8.4599V22.2461H8.5741ZM8.67341 22.1907H8.517V22.3024H8.67341V22.1907ZM9.51176 23.0166C9.51176 22.5606 9.13603 22.1907 8.67341 22.1907V22.3024C9.07314 22.3024 9.39755 22.6227 9.39755 23.0166H9.51176ZM9.51176 23.941V23.0166H9.39755V23.941H9.51176ZM7.57852 23.9973H9.45465V23.8847H7.57852V23.9973ZM7.44859 23.9973H7.57852V23.8847H7.44859V23.9973ZM5.07755 23.9973H7.44859V23.8847H5.07755V23.9973ZM0.700447 23.9973H5.07755V23.8847H0.700447V23.9973ZM0.643344 23.0166V23.941H0.757551V23.0166H0.643344ZM1.48169 22.1907C1.01907 22.1907 0.643344 22.5606 0.643344 23.0166H0.757551C0.757551 22.6227 1.08196 22.3024 1.48169 22.3024V22.1907ZM1.6381 22.1907H1.48169V22.3024H1.6381V22.1907ZM1.581 21.3217V22.2461H1.69521V21.3217H1.581ZM2.42017 20.4958C1.95672 20.4958 1.581 20.8657 1.581 21.3217H1.69521C1.69521 20.9278 2.01962 20.6083 2.42017 20.6083V20.4958ZM2.36307 6.83894V20.552H2.47727V6.83894H2.36307ZM1.56031 6.89522H2.42017V6.78266H1.56031V6.89522ZM0.489413 3.4657L1.50569 6.85466L1.61493 6.82322L0.598654 3.43342L0.489413 3.4657ZM5.07755 3.39287L0.544033 3.3937V3.50542H5.07755V3.39287ZM5.02045 0.0601821V3.44915H5.13465V0.0601821H5.02045Z" fill="white"/>
</g>
<defs>
<clipPath id="clip0_458_5873">
<rect width="26.4828" height="24" fill="white" transform="translate(0.519653)"/>
</clipPath>
</defs>
</svg>
