<svg width="84" height="83" viewBox="0 0 84 83" fill="none" xmlns="http://www.w3.org/2000/svg">
<g filter="url(#filter0_dii_458_6019)">
<rect x="0.963867" width="82.0723" height="82.0723" rx="12.3108" fill="#D0F603"/>
<rect x="0.963867" width="82.0723" height="82.0723" rx="12.3108" fill="url(#paint0_linear_458_6019)" fill-opacity="0.2"/>
<rect x="0.963867" width="82.0723" height="82.0723" rx="12.3108" fill="url(#paint1_linear_458_6019)" fill-opacity="0.29" style="mix-blend-mode:overlay"/>
<rect x="0.963867" width="82.0723" height="82.0723" rx="12.3108" fill="url(#paint2_linear_458_6019)" fill-opacity="0.29" style="mix-blend-mode:overlay"/>
<rect x="1.1086" y="0.144734" width="81.7828" height="81.7828" rx="12.1661" stroke="url(#paint3_linear_458_6019)" stroke-opacity="0.62" stroke-width="0.289467" style="mix-blend-mode:overlay"/>
<g clip-path="url(#clip0_458_6019)">
<g filter="url(#filter1_d_458_6019)">
<path d="M58.6484 65.5709H34.1136C32.0221 65.5709 30.0162 64.74 28.5372 63.2611C27.0583 61.7821 26.2274 59.7763 26.2274 57.6847V33.1499C26.2274 31.0583 27.0583 29.0525 28.5372 27.5735C30.0162 26.0946 32.0221 25.2637 34.1136 25.2637H58.6484C60.74 25.2637 62.7459 26.0946 64.2248 27.5735C65.7038 29.0525 66.5346 31.0583 66.5346 33.1499V57.6847C66.5346 59.7763 65.7038 61.7821 64.2248 63.2611C62.7459 64.74 60.74 65.5709 58.6484 65.5709Z" fill="url(#paint4_linear_458_6019)"/>
<path d="M58.6484 65.5161H34.1136C32.0366 65.5161 30.0446 64.691 28.576 63.2224C27.1073 61.7537 26.2822 59.7617 26.2822 57.6847V33.1499C26.2822 31.0729 27.1073 29.0809 28.576 27.6122C30.0446 26.1436 32.0366 25.3185 34.1136 25.3185H58.6484C60.7255 25.3185 62.7174 26.1436 64.1861 27.6122C65.6548 29.0809 66.4799 31.0729 66.4799 33.1499V57.6847C66.4799 59.7617 65.6548 61.7537 64.1861 63.2224C62.7174 64.691 60.7255 65.5161 58.6484 65.5161Z" stroke="url(#paint5_linear_458_6019)" stroke-width="0.10953"/>
</g>
<g filter="url(#filter2_d_458_6019)">
<path d="M31.4854 21.7586H57.3214C56.7761 20.2221 55.7689 18.892 54.4377 17.9507C53.1066 17.0095 51.5168 16.5031 49.8865 16.5011H25.3516C23.2601 16.5011 21.2542 17.332 19.7753 18.8109C18.2963 20.2899 17.4655 22.2958 17.4655 24.3873V48.9221C17.4674 50.5525 17.9738 52.1422 18.9151 53.4734C19.8564 54.8045 21.1865 55.8118 22.7229 56.3571V30.521C22.7229 28.1971 23.6461 25.9683 25.2894 24.325C26.9326 22.6818 29.1614 21.7586 31.4854 21.7586Z" fill="url(#paint6_linear_458_6019)"/>
<path d="M22.6682 30.521V56.2791C21.1733 55.7319 19.8796 54.7425 18.9598 53.4418C18.025 52.1199 17.5222 50.5411 17.5202 48.9221L17.5202 24.3873C17.5202 22.3103 18.3453 20.3183 19.814 18.8497C21.2827 17.381 23.2746 16.5559 25.3516 16.5559H49.8864C51.5055 16.5578 53.0842 17.0607 54.4061 17.9955C55.7069 18.9153 56.6962 20.2089 57.2434 21.7038H31.4854C29.1469 21.7038 26.9042 22.6328 25.2506 24.2863C23.5971 25.9399 22.6682 28.1826 22.6682 30.521Z" stroke="url(#paint7_linear_458_6019)" stroke-width="0.10953"/>
</g>
<path d="M46.3813 40.1728C47.0768 40.1728 47.7438 40.449 48.2356 40.9408C48.7274 41.4326 49.0037 42.0997 49.0037 42.7952C49.0037 43.4907 48.7274 44.1577 48.2356 44.6495C47.7438 45.1413 47.0768 45.4176 46.3813 45.4176C45.6858 45.4176 45.0188 45.1413 44.527 44.6495C44.0352 44.1577 43.7589 43.4907 43.7589 42.7952C43.7589 42.0997 44.0352 41.4326 44.527 40.9408C45.0188 40.449 45.6858 40.1728 46.3813 40.1728ZM46.3813 50.6624C46.3813 50.6624 51.6261 50.6624 51.6261 49.3512C51.6261 47.7777 49.0693 46.0732 46.3813 46.0732C43.6933 46.0732 41.1365 47.7777 41.1365 49.3512C41.1365 50.6624 46.3813 50.6624 46.3813 50.6624Z" fill="#8EA600"/>
</g>
</g>
<defs>
<filter id="filter0_dii_458_6019" x="0.963867" y="-0.434201" width="82.3617" height="83.6643" filterUnits="userSpaceOnUse" color-interpolation-filters="sRGB">
<feFlood flood-opacity="0" result="BackgroundImageFix"/>
<feColorMatrix in="SourceAlpha" type="matrix" values="0 0 0 0 0 0 0 0 0 0 0 0 0 0 0 0 0 0 127 0" result="hardAlpha"/>
<feOffset dx="0.289467" dy="0.578934"/>
<feComposite in2="hardAlpha" operator="out"/>
<feColorMatrix type="matrix" values="0 0 0 0 0.427435 0 0 0 0 0.506667 0 0 0 0 0 0 0 0 0.964706 0"/>
<feBlend mode="normal" in2="BackgroundImageFix" result="effect1_dropShadow_458_6019"/>
<feBlend mode="normal" in="SourceGraphic" in2="effect1_dropShadow_458_6019" result="shape"/>
<feColorMatrix in="SourceAlpha" type="matrix" values="0 0 0 0 0 0 0 0 0 0 0 0 0 0 0 0 0 0 127 0" result="hardAlpha"/>
<feOffset dy="-0.868401"/>
<feGaussianBlur stdDeviation="0.2171"/>
<feComposite in2="hardAlpha" operator="arithmetic" k2="-1" k3="1"/>
<feColorMatrix type="matrix" values="0 0 0 0 1 0 0 0 0 1 0 0 0 0 1 0 0 0 0.25 0"/>
<feBlend mode="normal" in2="shape" result="effect2_innerShadow_458_6019"/>
<feColorMatrix in="SourceAlpha" type="matrix" values="0 0 0 0 0 0 0 0 0 0 0 0 0 0 0 0 0 0 127 0" result="hardAlpha"/>
<feOffset dy="1.15787"/>
<feGaussianBlur stdDeviation="1.12892"/>
<feComposite in2="hardAlpha" operator="arithmetic" k2="-1" k3="1"/>
<feColorMatrix type="matrix" values="0 0 0 0 0 0 0 0 0 0 0 0 0 0 0 0 0 0 0.57 0"/>
<feBlend mode="color-burn" in2="effect2_innerShadow_458_6019" result="effect3_innerShadow_458_6019"/>
</filter>
<filter id="filter1_d_458_6019" x="23.605" y="25.2637" width="45.552" height="45.552" filterUnits="userSpaceOnUse" color-interpolation-filters="sRGB">
<feFlood flood-opacity="0" result="BackgroundImageFix"/>
<feColorMatrix in="SourceAlpha" type="matrix" values="0 0 0 0 0 0 0 0 0 0 0 0 0 0 0 0 0 0 127 0" result="hardAlpha"/>
<feOffset dy="2.62241"/>
<feGaussianBlur stdDeviation="1.3112"/>
<feComposite in2="hardAlpha" operator="out"/>
<feColorMatrix type="matrix" values="0 0 0 0 0 0 0 0 0 0 0 0 0 0 0 0 0 0 0.1 0"/>
<feBlend mode="normal" in2="BackgroundImageFix" result="effect1_dropShadow_458_6019"/>
<feBlend mode="normal" in="SourceGraphic" in2="effect1_dropShadow_458_6019" result="shape"/>
</filter>
<filter id="filter2_d_458_6019" x="14.843" y="16.5011" width="45.1008" height="45.1008" filterUnits="userSpaceOnUse" color-interpolation-filters="sRGB">
<feFlood flood-opacity="0" result="BackgroundImageFix"/>
<feColorMatrix in="SourceAlpha" type="matrix" values="0 0 0 0 0 0 0 0 0 0 0 0 0 0 0 0 0 0 127 0" result="hardAlpha"/>
<feOffset dy="2.62241"/>
<feGaussianBlur stdDeviation="1.3112"/>
<feComposite in2="hardAlpha" operator="out"/>
<feColorMatrix type="matrix" values="0 0 0 0 0 0 0 0 0 0 0 0 0 0 0 0 0 0 0.1 0"/>
<feBlend mode="normal" in2="BackgroundImageFix" result="effect1_dropShadow_458_6019"/>
<feBlend mode="normal" in="SourceGraphic" in2="effect1_dropShadow_458_6019" result="shape"/>
</filter>
<linearGradient id="paint0_linear_458_6019" x1="42" y1="0" x2="42" y2="82.0723" gradientUnits="userSpaceOnUse">
<stop stop-color="white"/>
<stop offset="1" stop-color="white" stop-opacity="0"/>
</linearGradient>
<linearGradient id="paint1_linear_458_6019" x1="-15.8045" y1="-9.8849" x2="78.5595" y2="73.492" gradientUnits="userSpaceOnUse">
<stop offset="0.439763" stop-color="white" stop-opacity="0"/>
<stop offset="0.443782" stop-color="white"/>
<stop offset="0.923293" stop-color="white" stop-opacity="0"/>
</linearGradient>
<linearGradient id="paint2_linear_458_6019" x1="34.249" y1="48.5888" x2="78.5595" y2="73.492" gradientUnits="userSpaceOnUse">
<stop offset="0.439763" stop-color="white" stop-opacity="0"/>
<stop offset="0.443782" stop-color="white"/>
<stop offset="0.923293" stop-color="white" stop-opacity="0"/>
</linearGradient>
<linearGradient id="paint3_linear_458_6019" x1="30.8342" y1="2.68711" x2="43.6578" y2="74.3332" gradientUnits="userSpaceOnUse">
<stop stop-color="white"/>
<stop offset="1" stop-color="white" stop-opacity="0"/>
</linearGradient>
<linearGradient id="paint4_linear_458_6019" x1="46.381" y1="25.2637" x2="46.381" y2="65.5709" gradientUnits="userSpaceOnUse">
<stop stop-color="#F8FFD5"/>
<stop offset="1" stop-color="#E6FF63"/>
</linearGradient>
<linearGradient id="paint5_linear_458_6019" x1="46.381" y1="25.2637" x2="46.381" y2="65.5709" gradientUnits="userSpaceOnUse">
<stop stop-color="#CADB00" stop-opacity="0.964706"/>
<stop offset="1" stop-color="#E6FF5F" stop-opacity="0.964706"/>
</linearGradient>
<linearGradient id="paint6_linear_458_6019" x1="37.3934" y1="16.5011" x2="37.3934" y2="56.3571" gradientUnits="userSpaceOnUse">
<stop stop-color="#F8FFD5"/>
<stop offset="1" stop-color="#E6FF63"/>
</linearGradient>
<linearGradient id="paint7_linear_458_6019" x1="37.3934" y1="16.5011" x2="37.3934" y2="56.3571" gradientUnits="userSpaceOnUse">
<stop stop-color="#CADB00" stop-opacity="0.964706"/>
<stop offset="1" stop-color="#E6FF5F" stop-opacity="0.964706"/>
</linearGradient>
<clipPath id="clip0_458_6019">
<rect width="56.0796" height="56.0796" fill="white" transform="translate(13.9602 12.9963)"/>
</clipPath>
</defs>
</svg>
