<svg width="1588" height="686" viewBox="0 0 1588 686" fill="none" xmlns="http://www.w3.org/2000/svg">
<g style="mix-blend-mode:overlay">
<path d="M37.3969 1H1.36816V37.0287M37.3969 1V37.0287M37.3969 1H73.4256M37.3969 37.0287H1.36816M37.3969 37.0287V73.0574M37.3969 37.0287H73.4256M1.36816 37.0287V73.0574M37.3969 73.0574H1.36816M37.3969 73.0574V109.086M37.3969 73.0574H73.4256M1.36816 73.0574V109.086M37.3969 109.086H1.36816M37.3969 109.086V145.115M37.3969 109.086H73.4256M1.36816 109.086V145.115M37.3969 145.115H1.36816M37.3969 145.115V181.144M37.3969 145.115H73.4256M1.36816 145.115V181.144M37.3969 181.144H1.36816M37.3969 181.144V217.172M37.3969 181.144H73.4256M1.36816 181.144V217.172M37.3969 217.172H1.36816M37.3969 217.172V253.201M37.3969 217.172H73.4256M1.36816 217.172V253.201M37.3969 253.201H1.36816M37.3969 253.201V289.23M37.3969 253.201H73.4256M1.36816 253.201V289.23M37.3969 289.23H1.36816M37.3969 289.23V325.258M37.3969 289.23H73.4256M1.36816 289.23V325.258M37.3969 325.258H1.36816M37.3969 325.258V361.287M37.3969 325.258H73.4256M1.36816 325.258V361.287M37.3969 361.287H1.36816M37.3969 361.287V397.316M37.3969 361.287H73.4256M1.36816 361.287V397.316M37.3969 397.316H1.36816M37.3969 397.316V433.345M37.3969 397.316H73.4256M1.36816 397.316V433.345M37.3969 433.345H1.36816M37.3969 433.345V469.373M37.3969 433.345H73.4256M1.36816 433.345V469.373M37.3969 469.373H1.36816M37.3969 469.373V505.402M37.3969 469.373H73.4256M1.36816 469.373V505.402M37.3969 505.402H1.36816M37.3969 505.402V541.431M37.3969 505.402H73.4256M1.36816 505.402V541.431M37.3969 541.431H1.36816M37.3969 541.431V577.459M37.3969 541.431H73.4256M1.36816 541.431V577.459M37.3969 577.459H1.36816M37.3969 577.459V613.488M37.3969 577.459H73.4256M1.36816 577.459V613.488M37.3969 613.488H1.36816M37.3969 613.488V649.517M37.3969 613.488H73.4256M1.36816 613.488V649.517M37.3969 649.517H1.36816M37.3969 649.517V685.545M37.3969 649.517H73.4256M1.36816 649.517V685.545H37.3969M37.3969 685.545H73.4256M73.4256 1V37.0287M73.4256 1H109.454M73.4256 37.0287V73.0574M73.4256 37.0287H109.454M73.4256 73.0574V109.086M73.4256 73.0574H109.454M73.4256 109.086V145.115M73.4256 109.086H109.454M73.4256 145.115V181.144M73.4256 145.115H109.454M73.4256 181.144V217.172M73.4256 181.144H109.454M73.4256 217.172V253.201M73.4256 217.172H109.454M73.4256 253.201V289.23M73.4256 253.201H109.454M73.4256 289.23V325.258M73.4256 289.23H109.454M73.4256 325.258V361.287M73.4256 325.258H109.454M73.4256 361.287V397.316M73.4256 361.287H109.454M73.4256 397.316V433.345M73.4256 397.316H109.454M73.4256 433.345V469.373M73.4256 433.345H109.454M73.4256 469.373V505.402M73.4256 469.373H109.454M73.4256 505.402V541.431M73.4256 505.402H109.454M73.4256 541.431V577.459M73.4256 541.431H109.454M73.4256 577.459V613.488M73.4256 577.459H109.454M73.4256 613.488V649.517M73.4256 613.488H109.454M73.4256 649.517V685.545M73.4256 649.517H109.454M73.4256 685.545H109.454M109.454 1V37.0287M109.454 1H145.483M109.454 37.0287V73.0574M109.454 37.0287H145.483M109.454 73.0574V109.086M109.454 73.0574H145.483M109.454 109.086V145.115M109.454 109.086H145.483M109.454 145.115V181.144M109.454 145.115H145.483M109.454 181.144V217.172M109.454 181.144H145.483M109.454 217.172V253.201M109.454 217.172H145.483M109.454 253.201V289.23M109.454 253.201H145.483M109.454 289.23V325.258M109.454 289.23H145.483M109.454 325.258V361.287M109.454 325.258H145.483M109.454 361.287V397.316M109.454 361.287H145.483M109.454 397.316V433.345M109.454 397.316H145.483M109.454 433.345V469.373M109.454 433.345H145.483M109.454 469.373V505.402M109.454 469.373H145.483M109.454 505.402V541.431M109.454 505.402H145.483M109.454 541.431V577.459M109.454 541.431H145.483M109.454 577.459V613.488M109.454 577.459H145.483M109.454 613.488V649.517M109.454 613.488H145.483M109.454 649.517V685.545M109.454 649.517H145.483M109.454 685.545H145.483M145.483 1V37.0287M145.483 1H181.512M145.483 37.0287V73.0574M145.483 37.0287H181.512M145.483 73.0574V109.086M145.483 73.0574H181.512M145.483 109.086V145.115M145.483 109.086H181.512M145.483 145.115V181.144M145.483 145.115H181.512M145.483 181.144V217.172M145.483 181.144H181.512M145.483 217.172V253.201M145.483 217.172H181.512M145.483 253.201V289.23M145.483 253.201H181.512M145.483 289.23V325.258M145.483 289.23H181.512M145.483 325.258V361.287M145.483 325.258H181.512M145.483 361.287V397.316M145.483 361.287H181.512M145.483 397.316V433.345M145.483 397.316H181.512M145.483 433.345V469.373M145.483 433.345H181.512M145.483 469.373V505.402M145.483 469.373H181.512M145.483 505.402V541.431M145.483 505.402H181.512M145.483 541.431V577.459M145.483 541.431H181.512M145.483 577.459V613.488M145.483 577.459H181.512M145.483 613.488V649.517M145.483 613.488H181.512M145.483 649.517V685.545M145.483 649.517H181.512M145.483 685.545H181.512M181.512 1V37.0287M181.512 1H217.54M181.512 37.0287V73.0574M181.512 37.0287H217.54M181.512 73.0574V109.086M181.512 73.0574H217.54M181.512 109.086V145.115M181.512 109.086H217.54M181.512 145.115V181.144M181.512 145.115H217.54M181.512 181.144V217.172M181.512 181.144H217.54M181.512 217.172V253.201M181.512 217.172H217.54M181.512 253.201V289.23M181.512 253.201H217.54M181.512 289.23V325.258M181.512 289.23H217.54M181.512 325.258V361.287M181.512 325.258H217.54M181.512 361.287V397.316M181.512 361.287H217.54M181.512 397.316V433.345M181.512 397.316H217.54M181.512 433.345V469.373M181.512 433.345H217.54M181.512 469.373V505.402M181.512 469.373H217.54M181.512 505.402V541.431M181.512 505.402H217.54M181.512 541.431V577.459M181.512 541.431H217.54M181.512 577.459V613.488M181.512 577.459H217.54M181.512 613.488V649.517M181.512 613.488H217.54M181.512 649.517V685.545M181.512 649.517H217.54M181.512 685.545H217.54M217.54 1V37.0287M217.54 1H253.569M217.54 37.0287V73.0574M217.54 37.0287H253.569M217.54 73.0574V109.086M217.54 73.0574H253.569M217.54 109.086V145.115M217.54 109.086H253.569M217.54 145.115V181.144M217.54 145.115H253.569M217.54 181.144V217.172M217.54 181.144H253.569M217.54 217.172V253.201M217.54 217.172H253.569M217.54 253.201V289.23M217.54 253.201H253.569M217.54 289.23V325.258M217.54 289.23H253.569M217.54 325.258V361.287M217.54 325.258H253.569M217.54 361.287V397.316M217.54 361.287H253.569M217.54 397.316V433.345M217.54 397.316H253.569M217.54 433.345V469.373M217.54 433.345H253.569M217.54 469.373V505.402M217.54 469.373H253.569M217.54 505.402V541.431M217.54 505.402H253.569M217.54 541.431V577.459M217.54 541.431H253.569M217.54 577.459V613.488M217.54 577.459H253.569M217.54 613.488V649.517M217.54 613.488H253.569M217.54 649.517V685.545M217.54 649.517H253.569M217.54 685.545H253.569M253.569 1V37.0287M253.569 1H289.598M253.569 37.0287V73.0574M253.569 37.0287H289.598M253.569 73.0574V109.086M253.569 73.0574H289.598M253.569 109.086V145.115M253.569 109.086H289.598M253.569 145.115V181.144M253.569 145.115H289.598M253.569 181.144V217.172M253.569 181.144H289.598M253.569 217.172V253.201M253.569 217.172H289.598M253.569 253.201V289.23M253.569 253.201H289.598M253.569 289.23V325.258M253.569 289.23H289.598M253.569 325.258V361.287M253.569 325.258H289.598M253.569 361.287V397.316M253.569 361.287H289.598M253.569 397.316V433.345M253.569 397.316H289.598M253.569 433.345V469.373M253.569 433.345H289.598M253.569 469.373V505.402M253.569 469.373H289.598M253.569 505.402V541.431M253.569 505.402H289.598M253.569 541.431V577.459M253.569 541.431H289.598M253.569 577.459V613.488M253.569 577.459H289.598M253.569 613.488V649.517M253.569 613.488H289.598M253.569 649.517V685.545M253.569 649.517H289.598M253.569 685.545H289.598M289.598 1V37.0287M289.598 1H325.627M289.598 37.0287V73.0574M289.598 37.0287H325.627M289.598 73.0574V109.086M289.598 73.0574H325.627M289.598 109.086V145.115M289.598 109.086H325.627M289.598 145.115V181.144M289.598 145.115H325.627M289.598 181.144V217.172M289.598 181.144H325.627M289.598 217.172V253.201M289.598 217.172H325.627M289.598 253.201V289.23M289.598 253.201H325.627M289.598 289.23V325.258M289.598 289.23H325.627M289.598 325.258V361.287M289.598 325.258H325.627M289.598 361.287V397.316M289.598 361.287H325.627M289.598 397.316V433.345M289.598 397.316H325.627M289.598 433.345V469.373M289.598 433.345H325.627M289.598 469.373V505.402M289.598 469.373H325.627M289.598 505.402V541.431M289.598 505.402H325.627M289.598 541.431V577.459M289.598 541.431H325.627M289.598 577.459V613.488M289.598 577.459H325.627M289.598 613.488V649.517M289.598 613.488H325.627M289.598 649.517V685.545M289.598 649.517H325.627M289.598 685.545H325.627M325.627 1V37.0287M325.627 1H361.655M325.627 37.0287V73.0574M325.627 37.0287H361.655M325.627 73.0574V109.086M325.627 73.0574H361.655M325.627 109.086V145.115M325.627 109.086H361.655M325.627 145.115V181.144M325.627 145.115H361.655M325.627 181.144V217.172M325.627 181.144H361.655M325.627 217.172V253.201M325.627 217.172H361.655M325.627 253.201V289.23M325.627 253.201H361.655M325.627 289.23V325.258M325.627 289.23H361.655M325.627 325.258V361.287M325.627 325.258H361.655M325.627 361.287V397.316M325.627 361.287H361.655M325.627 397.316V433.345M325.627 397.316H361.655M325.627 433.345V469.373M325.627 433.345H361.655M325.627 469.373V505.402M325.627 469.373H361.655M325.627 505.402V541.431M325.627 505.402H361.655M325.627 541.431V577.459M325.627 541.431H361.655M325.627 577.459V613.488M325.627 577.459H361.655M325.627 613.488V649.517M325.627 613.488H361.655M325.627 649.517V685.545M325.627 649.517H361.655M325.627 685.545H361.655M361.655 1V37.0287M361.655 1H397.684M361.655 37.0287V73.0574M361.655 37.0287H397.684M361.655 73.0574V109.086M361.655 73.0574H397.684M361.655 109.086V145.115M361.655 109.086H397.684M361.655 145.115V181.144M361.655 145.115H397.684M361.655 181.144V217.172M361.655 181.144H397.684M361.655 217.172V253.201M361.655 217.172H397.684M361.655 253.201V289.23M361.655 253.201H397.684M361.655 289.23V325.258M361.655 289.23H397.684M361.655 325.258V361.287M361.655 325.258H397.684M361.655 361.287V397.316M361.655 361.287H397.684M361.655 397.316V433.345M361.655 397.316H397.684M361.655 433.345V469.373M361.655 433.345H397.684M361.655 469.373V505.402M361.655 469.373H397.684M361.655 505.402V541.431M361.655 505.402H397.684M361.655 541.431V577.459M361.655 541.431H397.684M361.655 577.459V613.488M361.655 577.459H397.684M361.655 613.488V649.517M361.655 613.488H397.684M361.655 649.517V685.545M361.655 649.517H397.684M361.655 685.545H397.684M397.684 1V37.0287M397.684 1H433.713M397.684 37.0287V73.0574M397.684 37.0287H433.713M397.684 73.0574V109.086M397.684 73.0574H433.713M397.684 109.086V145.115M397.684 109.086H433.713M397.684 145.115V181.144M397.684 145.115H433.713M397.684 181.144V217.172M397.684 181.144H433.713M397.684 217.172V253.201M397.684 217.172H433.713M397.684 253.201V289.23M397.684 253.201H433.713M397.684 289.23V325.258M397.684 289.23H433.713M397.684 325.258V361.287M397.684 325.258H433.713M397.684 361.287V397.316M397.684 361.287H433.713M397.684 397.316V433.345M397.684 397.316H433.713M397.684 433.345V469.373M397.684 433.345H433.713M397.684 469.373V505.402M397.684 469.373H433.713M397.684 505.402V541.431M397.684 505.402H433.713M397.684 541.431V577.459M397.684 541.431H433.713M397.684 577.459V613.488M397.684 577.459H433.713M397.684 613.488V649.517M397.684 613.488H433.713M397.684 649.517V685.545M397.684 649.517H433.713M397.684 685.545H433.713M433.713 1V37.0287M433.713 1H469.741M433.713 37.0287V73.0574M433.713 37.0287H469.741M433.713 73.0574V109.086M433.713 73.0574H469.741M433.713 109.086V145.115M433.713 109.086H469.741M433.713 145.115V181.144M433.713 145.115H469.741M433.713 181.144V217.172M433.713 181.144H469.741M433.713 217.172V253.201M433.713 217.172H469.741M433.713 253.201V289.23M433.713 253.201H469.741M433.713 289.23V325.258M433.713 289.23H469.741M433.713 325.258V361.287M433.713 325.258H469.741M433.713 361.287V397.316M433.713 361.287H469.741M433.713 397.316V433.345M433.713 397.316H469.741M433.713 433.345V469.373M433.713 433.345H469.741M433.713 469.373V505.402M433.713 469.373H469.741M433.713 505.402V541.431M433.713 505.402H469.741M433.713 541.431V577.459M433.713 541.431H469.741M433.713 577.459V613.488M433.713 577.459H469.741M433.713 613.488V649.517M433.713 613.488H469.741M433.713 649.517V685.545M433.713 649.517H469.741M433.713 685.545H469.741M469.741 1V37.0287M469.741 1H505.77M469.741 37.0287V73.0574M469.741 37.0287H505.77M469.741 73.0574V109.086M469.741 73.0574H505.77M469.741 109.086V145.115M469.741 109.086H505.77M469.741 145.115V181.144M469.741 145.115H505.77M469.741 181.144V217.172M469.741 181.144H505.77M469.741 217.172V253.201M469.741 217.172H505.77M469.741 253.201V289.23M469.741 253.201H505.77M469.741 289.23V325.258M469.741 289.23H505.77M469.741 325.258V361.287M469.741 325.258H505.77M469.741 361.287V397.316M469.741 361.287H505.77M469.741 397.316V433.345M469.741 397.316H505.77M469.741 433.345V469.373M469.741 433.345H505.77M469.741 469.373V505.402M469.741 469.373H505.77M469.741 505.402V541.431M469.741 505.402H505.77M469.741 541.431V577.459M469.741 541.431H505.77M469.741 577.459V613.488M469.741 577.459H505.77M469.741 613.488V649.517M469.741 613.488H505.77M469.741 649.517V685.545M469.741 649.517H505.77M469.741 685.545H505.77M505.77 1V37.0287M505.77 1H541.799M505.77 37.0287V73.0574M505.77 37.0287H541.799M505.77 73.0574V109.086M505.77 73.0574H541.799M505.77 109.086V145.115M505.77 109.086H541.799M505.77 145.115V181.144M505.77 145.115H541.799M505.77 181.144V217.172M505.77 181.144H541.799M505.77 217.172V253.201M505.77 217.172H541.799M505.77 253.201V289.23M505.77 253.201H541.799M505.77 289.23V325.258M505.77 289.23H541.799M505.77 325.258V361.287M505.77 325.258H541.799M505.77 361.287V397.316M505.77 361.287H541.799M505.77 397.316V433.345M505.77 397.316H541.799M505.77 433.345V469.373M505.77 433.345H541.799M505.77 469.373V505.402M505.77 469.373H541.799M505.77 505.402V541.431M505.77 505.402H541.799M505.77 541.431V577.459M505.77 541.431H541.799M505.77 577.459V613.488M505.77 577.459H541.799M505.77 613.488V649.517M505.77 613.488H541.799M505.77 649.517V685.545M505.77 649.517H541.799M505.77 685.545H541.799M541.799 1V37.0287M541.799 1H577.828M541.799 37.0287V73.0574M541.799 37.0287H577.828M541.799 73.0574V109.086M541.799 73.0574H577.828M541.799 109.086V145.115M541.799 109.086H577.828M541.799 145.115V181.144M541.799 145.115H577.828M541.799 181.144V217.172M541.799 181.144H577.828M541.799 217.172V253.201M541.799 217.172H577.828M541.799 253.201V289.23M541.799 253.201H577.828M541.799 289.23V325.258M541.799 289.23H577.828M541.799 325.258V361.287M541.799 325.258H577.828M541.799 361.287V397.316M541.799 361.287H577.828M541.799 397.316V433.345M541.799 397.316H577.828M541.799 433.345V469.373M541.799 433.345H577.828M541.799 469.373V505.402M541.799 469.373H577.828M541.799 505.402V541.431M541.799 505.402H577.828M541.799 541.431V577.459M541.799 541.431H577.828M541.799 577.459V613.488M541.799 577.459H577.828M541.799 613.488V649.517M541.799 613.488H577.828M541.799 649.517V685.545M541.799 649.517H577.828M541.799 685.545H577.828M577.828 1V37.0287M577.828 1H613.856M577.828 37.0287V73.0574M577.828 37.0287H613.856M577.828 73.0574V109.086M577.828 73.0574H613.856M577.828 109.086V145.115M577.828 109.086H613.856M577.828 145.115V181.144M577.828 145.115H613.856M577.828 181.144V217.172M577.828 181.144H613.856M577.828 217.172V253.201M577.828 217.172H613.856M577.828 253.201V289.23M577.828 253.201H613.856M577.828 289.23V325.258M577.828 289.23H613.856M577.828 325.258V361.287M577.828 325.258H613.856M577.828 361.287V397.316M577.828 361.287H613.856M577.828 397.316V433.345M577.828 397.316H613.856M577.828 433.345V469.373M577.828 433.345H613.856M577.828 469.373V505.402M577.828 469.373H613.856M577.828 505.402V541.431M577.828 505.402H613.856M577.828 541.431V577.459M577.828 541.431H613.856M577.828 577.459V613.488M577.828 577.459H613.856M577.828 613.488V649.517M577.828 613.488H613.856M577.828 649.517V685.545M577.828 649.517H613.856M577.828 685.545H613.856M613.856 1V37.0287M613.856 1H649.885M613.856 37.0287V73.0574M613.856 37.0287H649.885M613.856 73.0574V109.086M613.856 73.0574H649.885M613.856 109.086V145.115M613.856 109.086H649.885M613.856 145.115V181.144M613.856 145.115H649.885M613.856 181.144V217.172M613.856 181.144H649.885M613.856 217.172V253.201M613.856 217.172H649.885M613.856 253.201V289.23M613.856 253.201H649.885M613.856 289.23V325.258M613.856 289.23H649.885M613.856 325.258V361.287M613.856 325.258H649.885M613.856 361.287V397.316M613.856 361.287H649.885M613.856 397.316V433.345M613.856 397.316H649.885M613.856 433.345V469.373M613.856 433.345H649.885M613.856 469.373V505.402M613.856 469.373H649.885M613.856 505.402V541.431M613.856 505.402H649.885M613.856 541.431V577.459M613.856 541.431H649.885M613.856 577.459V613.488M613.856 577.459H649.885M613.856 613.488V649.517M613.856 613.488H649.885M613.856 649.517V685.545M613.856 649.517H649.885M613.856 685.545H649.885M649.885 1V37.0287M649.885 1H685.914M649.885 37.0287V73.0574M649.885 37.0287H685.914M649.885 73.0574V109.086M649.885 73.0574H685.914M649.885 109.086V145.115M649.885 109.086H685.914M649.885 145.115V181.144M649.885 145.115H685.914M649.885 181.144V217.172M649.885 181.144H685.914M649.885 217.172V253.201M649.885 217.172H685.914M649.885 253.201V289.23M649.885 253.201H685.914M649.885 289.23V325.258M649.885 289.23H685.914M649.885 325.258V361.287M649.885 325.258H685.914M649.885 361.287V397.316M649.885 361.287H685.914M649.885 397.316V433.345M649.885 397.316H685.914M649.885 433.345V469.373M649.885 433.345H685.914M649.885 469.373V505.402M649.885 469.373H685.914M649.885 505.402V541.431M649.885 505.402H685.914M649.885 541.431V577.459M649.885 541.431H685.914M649.885 577.459V613.488M649.885 577.459H685.914M649.885 613.488V649.517M649.885 613.488H685.914M649.885 649.517V685.545M649.885 649.517H685.914M649.885 685.545H685.914M685.914 1V37.0287M685.914 1H721.942M685.914 37.0287V73.0574M685.914 37.0287H721.942M685.914 73.0574V109.086M685.914 73.0574H721.942M685.914 109.086V145.115M685.914 109.086H721.942M685.914 145.115V181.144M685.914 145.115H721.942M685.914 181.144V217.172M685.914 181.144H721.942M685.914 217.172V253.201M685.914 217.172H721.942M685.914 253.201V289.23M685.914 253.201H721.942M685.914 289.23V325.258M685.914 289.23H721.942M685.914 325.258V361.287M685.914 325.258H721.942M685.914 361.287V397.316M685.914 361.287H721.942M685.914 397.316V433.345M685.914 397.316H721.942M685.914 433.345V469.373M685.914 433.345H721.942M685.914 469.373V505.402M685.914 469.373H721.942M685.914 505.402V541.431M685.914 505.402H721.942M685.914 541.431V577.459M685.914 541.431H721.942M685.914 577.459V613.488M685.914 577.459H721.942M685.914 613.488V649.517M685.914 613.488H721.942M685.914 649.517V685.545M685.914 649.517H721.942M685.914 685.545H721.942M721.942 1V37.0287M721.942 1H757.971M721.942 37.0287V73.0574M721.942 37.0287H757.971M721.942 73.0574V109.086M721.942 73.0574H757.971M721.942 109.086V145.115M721.942 109.086H757.971M721.942 145.115V181.144M721.942 145.115H757.971M721.942 181.144V217.172M721.942 181.144H757.971M721.942 217.172V253.201M721.942 217.172H757.971M721.942 253.201V289.23M721.942 253.201H757.971M721.942 289.23V325.258M721.942 289.23H757.971M721.942 325.258V361.287M721.942 325.258H757.971M721.942 361.287V397.316M721.942 361.287H757.971M721.942 397.316V433.345M721.942 397.316H757.971M721.942 433.345V469.373M721.942 433.345H757.971M721.942 469.373V505.402M721.942 469.373H757.971M721.942 505.402V541.431M721.942 505.402H757.971M721.942 541.431V577.459M721.942 541.431H757.971M721.942 577.459V613.488M721.942 577.459H757.971M721.942 613.488V649.517M721.942 613.488H757.971M721.942 649.517V685.545M721.942 649.517H757.971M721.942 685.545H757.971M757.971 1V37.0287M757.971 1H794M757.971 37.0287V73.0574M757.971 37.0287H794M757.971 73.0574V109.086M757.971 73.0574H794M757.971 109.086V145.115M757.971 109.086H794M757.971 145.115V181.144M757.971 145.115H794M757.971 181.144V217.172M757.971 181.144H794M757.971 217.172V253.201M757.971 217.172H794M757.971 253.201V289.23M757.971 253.201H794M757.971 289.23V325.258M757.971 289.23H794M757.971 325.258V361.287M757.971 325.258H794M757.971 361.287V397.316M757.971 361.287H794M757.971 397.316V433.345M757.971 397.316H794M757.971 433.345V469.373M757.971 433.345H794M757.971 469.373V505.402M757.971 469.373H794M757.971 505.402V541.431M757.971 505.402H794M757.971 541.431V577.459M757.971 541.431H794M757.971 577.459V613.488M757.971 577.459H794M757.971 613.488V649.517M757.971 613.488H794M757.971 649.517V685.545M757.971 649.517H794M757.971 685.545H794M794 1V37.0287M794 1H830.028M794 37.0287V73.0574M794 37.0287H830.028M794 73.0574V109.086M794 73.0574H830.028M794 109.086V145.115M794 109.086H830.028M794 145.115V181.144M794 145.115H830.028M794 181.144V217.172M794 181.144H830.028M794 217.172V253.201M794 217.172H830.028M794 253.201V289.23M794 253.201H830.028M794 289.23V325.258M794 289.23H830.028M794 325.258V361.287M794 325.258H830.028M794 361.287V397.316M794 361.287H830.028M794 397.316V433.345M794 397.316H830.028M794 433.345V469.373M794 433.345H830.028M794 469.373V505.402M794 469.373H830.028M794 505.402V541.431M794 505.402H830.028M794 541.431V577.459M794 541.431H830.028M794 577.459V613.488M794 577.459H830.028M794 613.488V649.517M794 613.488H830.028M794 649.517V685.545M794 649.517H830.028M794 685.545H830.028M830.028 1V37.0287M830.028 1H866.057M830.028 37.0287V73.0574M830.028 37.0287H866.057M830.028 73.0574V109.086M830.028 73.0574H866.057M830.028 109.086V145.115M830.028 109.086H866.057M830.028 145.115V181.144M830.028 145.115H866.057M830.028 181.144V217.172M830.028 181.144H866.057M830.028 217.172V253.201M830.028 217.172H866.057M830.028 253.201V289.23M830.028 253.201H866.057M830.028 289.23V325.258M830.028 289.23H866.057M830.028 325.258V361.287M830.028 325.258H866.057M830.028 361.287V397.316M830.028 361.287H866.057M830.028 397.316V433.345M830.028 397.316H866.057M830.028 433.345V469.373M830.028 433.345H866.057M830.028 469.373V505.402M830.028 469.373H866.057M830.028 505.402V541.431M830.028 505.402H866.057M830.028 541.431V577.459M830.028 541.431H866.057M830.028 577.459V613.488M830.028 577.459H866.057M830.028 613.488V649.517M830.028 613.488H866.057M830.028 649.517V685.545M830.028 649.517H866.057M830.028 685.545H866.057M866.057 1V37.0287M866.057 1H902.086M866.057 37.0287V73.0574M866.057 37.0287H902.086M866.057 73.0574V109.086M866.057 73.0574H902.086M866.057 109.086V145.115M866.057 109.086H902.086M866.057 145.115V181.144M866.057 145.115H902.086M866.057 181.144V217.172M866.057 181.144H902.086M866.057 217.172V253.201M866.057 217.172H902.086M866.057 253.201V289.23M866.057 253.201H902.086M866.057 289.23V325.258M866.057 289.23H902.086M866.057 325.258V361.287M866.057 325.258H902.086M866.057 361.287V397.316M866.057 361.287H902.086M866.057 397.316V433.345M866.057 397.316H902.086M866.057 433.345V469.373M866.057 433.345H902.086M866.057 469.373V505.402M866.057 469.373H902.086M866.057 505.402V541.431M866.057 505.402H902.086M866.057 541.431V577.459M866.057 541.431H902.086M866.057 577.459V613.488M866.057 577.459H902.086M866.057 613.488V649.517M866.057 613.488H902.086M866.057 649.517V685.545M866.057 649.517H902.086M866.057 685.545H902.086M902.086 1V37.0287M902.086 1H938.115M902.086 37.0287V73.0574M902.086 37.0287H938.115M902.086 73.0574V109.086M902.086 73.0574H938.115M902.086 109.086V145.115M902.086 109.086H938.115M902.086 145.115V181.144M902.086 145.115H938.115M902.086 181.144V217.172M902.086 181.144H938.115M902.086 217.172V253.201M902.086 217.172H938.115M902.086 253.201V289.23M902.086 253.201H938.115M902.086 289.23V325.258M902.086 289.23H938.115M902.086 325.258V361.287M902.086 325.258H938.115M902.086 361.287V397.316M902.086 361.287H938.115M902.086 397.316V433.345M902.086 397.316H938.115M902.086 433.345V469.373M902.086 433.345H938.115M902.086 469.373V505.402M902.086 469.373H938.115M902.086 505.402V541.431M902.086 505.402H938.115M902.086 541.431V577.459M902.086 541.431H938.115M902.086 577.459V613.488M902.086 577.459H938.115M902.086 613.488V649.517M902.086 613.488H938.115M902.086 649.517V685.545M902.086 649.517H938.115M902.086 685.545H938.115M938.115 1V37.0287M938.115 1H974.143M938.115 37.0287V73.0574M938.115 37.0287H974.143M938.115 73.0574V109.086M938.115 73.0574H974.143M938.115 109.086V145.115M938.115 109.086H974.143M938.115 145.115V181.144M938.115 145.115H974.143M938.115 181.144V217.172M938.115 181.144H974.143M938.115 217.172V253.201M938.115 217.172H974.143M938.115 253.201V289.23M938.115 253.201H974.143M938.115 289.23V325.258M938.115 289.23H974.143M938.115 325.258V361.287M938.115 325.258H974.143M938.115 361.287V397.316M938.115 361.287H974.143M938.115 397.316V433.345M938.115 397.316H974.143M938.115 433.345V469.373M938.115 433.345H974.143M938.115 469.373V505.402M938.115 469.373H974.143M938.115 505.402V541.431M938.115 505.402H974.143M938.115 541.431V577.459M938.115 541.431H974.143M938.115 577.459V613.488M938.115 577.459H974.143M938.115 613.488V649.517M938.115 613.488H974.143M938.115 649.517V685.545M938.115 649.517H974.143M938.115 685.545H974.143M974.143 1V37.0287M974.143 1H1010.17M974.143 37.0287V73.0574M974.143 37.0287H1010.17M974.143 73.0574V109.086M974.143 73.0574H1010.17M974.143 109.086V145.115M974.143 109.086H1010.17M974.143 145.115V181.144M974.143 145.115H1010.17M974.143 181.144V217.172M974.143 181.144H1010.17M974.143 217.172V253.201M974.143 217.172H1010.17M974.143 253.201V289.23M974.143 253.201H1010.17M974.143 289.23V325.258M974.143 289.23H1010.17M974.143 325.258V361.287M974.143 325.258H1010.17M974.143 361.287V397.316M974.143 361.287H1010.17M974.143 397.316V433.345M974.143 397.316H1010.17M974.143 433.345V469.373M974.143 433.345H1010.17M974.143 469.373V505.402M974.143 469.373H1010.17M974.143 505.402V541.431M974.143 505.402H1010.17M974.143 541.431V577.459M974.143 541.431H1010.17M974.143 577.459V613.488M974.143 577.459H1010.17M974.143 613.488V649.517M974.143 613.488H1010.17M974.143 649.517V685.545M974.143 649.517H1010.17M974.143 685.545H1010.17M1010.17 1V37.0287M1010.17 1H1046.2M1010.17 37.0287V73.0574M1010.17 37.0287H1046.2M1010.17 73.0574V109.086M1010.17 73.0574H1046.2M1010.17 109.086V145.115M1010.17 109.086H1046.2M1010.17 145.115V181.144M1010.17 145.115H1046.2M1010.17 181.144V217.172M1010.17 181.144H1046.2M1010.17 217.172V253.201M1010.17 217.172H1046.2M1010.17 253.201V289.23M1010.17 253.201H1046.2M1010.17 289.23V325.258M1010.17 289.23H1046.2M1010.17 325.258V361.287M1010.17 325.258H1046.2M1010.17 361.287V397.316M1010.17 361.287H1046.2M1010.17 397.316V433.345M1010.17 397.316H1046.2M1010.17 433.345V469.373M1010.17 433.345H1046.2M1010.17 469.373V505.402M1010.17 469.373H1046.2M1010.17 505.402V541.431M1010.17 505.402H1046.2M1010.17 541.431V577.459M1010.17 541.431H1046.2M1010.17 577.459V613.488M1010.17 577.459H1046.2M1010.17 613.488V649.517M1010.17 613.488H1046.2M1010.17 649.517V685.545M1010.17 649.517H1046.2M1010.17 685.545H1046.2M1046.2 1V37.0287M1046.2 1H1082.23M1046.2 37.0287V73.0574M1046.2 37.0287H1082.23M1046.2 73.0574V109.086M1046.2 73.0574H1082.23M1046.2 109.086V145.115M1046.2 109.086H1082.23M1046.2 145.115V181.144M1046.2 145.115H1082.23M1046.2 181.144V217.172M1046.2 181.144H1082.23M1046.2 217.172V253.201M1046.2 217.172H1082.23M1046.2 253.201V289.23M1046.2 253.201H1082.23M1046.2 289.23V325.258M1046.2 289.23H1082.23M1046.2 325.258V361.287M1046.2 325.258H1082.23M1046.2 361.287V397.316M1046.2 361.287H1082.23M1046.2 397.316V433.345M1046.2 397.316H1082.23M1046.2 433.345V469.373M1046.2 433.345H1082.23M1046.2 469.373V505.402M1046.2 469.373H1082.23M1046.2 505.402V541.431M1046.2 505.402H1082.23M1046.2 541.431V577.459M1046.2 541.431H1082.23M1046.2 577.459V613.488M1046.2 577.459H1082.23M1046.2 613.488V649.517M1046.2 613.488H1082.23M1046.2 649.517V685.545M1046.2 649.517H1082.23M1046.2 685.545H1082.23M1082.23 1V37.0287M1082.23 1H1118.26M1082.23 37.0287V73.0574M1082.23 37.0287H1118.26M1082.23 73.0574V109.086M1082.23 73.0574H1118.26M1082.23 109.086V145.115M1082.23 109.086H1118.26M1082.23 145.115V181.144M1082.23 145.115H1118.26M1082.23 181.144V217.172M1082.23 181.144H1118.26M1082.23 217.172V253.201M1082.23 217.172H1118.26M1082.23 253.201V289.23M1082.23 253.201H1118.26M1082.23 289.23V325.258M1082.23 289.23H1118.26M1082.23 325.258V361.287M1082.23 325.258H1118.26M1082.23 361.287V397.316M1082.23 361.287H1118.26M1082.23 397.316V433.345M1082.23 397.316H1118.26M1082.23 433.345V469.373M1082.23 433.345H1118.26M1082.23 469.373V505.402M1082.23 469.373H1118.26M1082.23 505.402V541.431M1082.23 505.402H1118.26M1082.23 541.431V577.459M1082.23 541.431H1118.26M1082.23 577.459V613.488M1082.23 577.459H1118.26M1082.23 613.488V649.517M1082.23 613.488H1118.26M1082.23 649.517V685.545M1082.23 649.517H1118.26M1082.23 685.545H1118.26M1118.26 1V37.0287M1118.26 1H1154.29M1118.26 37.0287V73.0574M1118.26 37.0287H1154.29M1118.26 73.0574V109.086M1118.26 73.0574H1154.29M1118.26 109.086V145.115M1118.26 109.086H1154.29M1118.26 145.115V181.144M1118.26 145.115H1154.29M1118.26 181.144V217.172M1118.26 181.144H1154.29M1118.26 217.172V253.201M1118.26 217.172H1154.29M1118.26 253.201V289.23M1118.26 253.201H1154.29M1118.26 289.23V325.258M1118.26 289.23H1154.29M1118.26 325.258V361.287M1118.26 325.258H1154.29M1118.26 361.287V397.316M1118.26 361.287H1154.29M1118.26 397.316V433.345M1118.26 397.316H1154.29M1118.26 433.345V469.373M1118.26 433.345H1154.29M1118.26 469.373V505.402M1118.26 469.373H1154.29M1118.26 505.402V541.431M1118.26 505.402H1154.29M1118.26 541.431V577.459M1118.26 541.431H1154.29M1118.26 577.459V613.488M1118.26 577.459H1154.29M1118.26 613.488V649.517M1118.26 613.488H1154.29M1118.26 649.517V685.545M1118.26 649.517H1154.29M1118.26 685.545H1154.29M1154.29 1V37.0287M1154.29 1H1190.32M1154.29 37.0287V73.0574M1154.29 37.0287H1190.32M1154.29 73.0574V109.086M1154.29 73.0574H1190.32M1154.29 109.086V145.115M1154.29 109.086H1190.32M1154.29 145.115V181.144M1154.29 145.115H1190.32M1154.29 181.144V217.172M1154.29 181.144H1190.32M1154.29 217.172V253.201M1154.29 217.172H1190.32M1154.29 253.201V289.23M1154.29 253.201H1190.32M1154.29 289.23V325.258M1154.29 289.23H1190.32M1154.29 325.258V361.287M1154.29 325.258H1190.32M1154.29 361.287V397.316M1154.29 361.287H1190.32M1154.29 397.316V433.345M1154.29 397.316H1190.32M1154.29 433.345V469.373M1154.29 433.345H1190.32M1154.29 469.373V505.402M1154.29 469.373H1190.32M1154.29 505.402V541.431M1154.29 505.402H1190.32M1154.29 541.431V577.459M1154.29 541.431H1190.32M1154.29 577.459V613.488M1154.29 577.459H1190.32M1154.29 613.488V649.517M1154.29 613.488H1190.32M1154.29 649.517V685.545M1154.29 649.517H1190.32M1154.29 685.545H1190.32M1190.32 1V37.0287M1190.32 1H1226.34M1190.32 37.0287V73.0574M1190.32 37.0287H1226.34M1190.32 73.0574V109.086M1190.32 73.0574H1226.34M1190.32 109.086V145.115M1190.32 109.086H1226.34M1190.32 145.115V181.144M1190.32 145.115H1226.34M1190.32 181.144V217.172M1190.32 181.144H1226.34M1190.32 217.172V253.201M1190.32 217.172H1226.34M1190.32 253.201V289.23M1190.32 253.201H1226.34M1190.32 289.23V325.258M1190.32 289.23H1226.34M1190.32 325.258V361.287M1190.32 325.258H1226.34M1190.32 361.287V397.316M1190.32 361.287H1226.34M1190.32 397.316V433.345M1190.32 397.316H1226.34M1190.32 433.345V469.373M1190.32 433.345H1226.34M1190.32 469.373V505.402M1190.32 469.373H1226.34M1190.32 505.402V541.431M1190.32 505.402H1226.34M1190.32 541.431V577.459M1190.32 541.431H1226.34M1190.32 577.459V613.488M1190.32 577.459H1226.34M1190.32 613.488V649.517M1190.32 613.488H1226.34M1190.32 649.517V685.545M1190.32 649.517H1226.34M1190.32 685.545H1226.34M1226.34 1V37.0287M1226.34 1H1262.37M1226.34 37.0287V73.0574M1226.34 37.0287H1262.37M1226.34 73.0574V109.086M1226.34 73.0574H1262.37M1226.34 109.086V145.115M1226.34 109.086H1262.37M1226.34 145.115V181.144M1226.34 145.115H1262.37M1226.34 181.144V217.172M1226.34 181.144H1262.37M1226.34 217.172V253.201M1226.34 217.172H1262.37M1226.34 253.201V289.23M1226.34 253.201H1262.37M1226.34 289.23V325.258M1226.34 289.23H1262.37M1226.34 325.258V361.287M1226.34 325.258H1262.37M1226.34 361.287V397.316M1226.34 361.287H1262.37M1226.34 397.316V433.345M1226.34 397.316H1262.37M1226.34 433.345V469.373M1226.34 433.345H1262.37M1226.34 469.373V505.402M1226.34 469.373H1262.37M1226.34 505.402V541.431M1226.34 505.402H1262.37M1226.34 541.431V577.459M1226.34 541.431H1262.37M1226.34 577.459V613.488M1226.34 577.459H1262.37M1226.34 613.488V649.517M1226.34 613.488H1262.37M1226.34 649.517V685.545M1226.34 649.517H1262.37M1226.34 685.545H1262.37M1262.37 1V37.0287M1262.37 1H1298.4M1262.37 37.0287V73.0574M1262.37 37.0287H1298.4M1262.37 73.0574V109.086M1262.37 73.0574H1298.4M1262.37 109.086V145.115M1262.37 109.086H1298.4M1262.37 145.115V181.144M1262.37 145.115H1298.4M1262.37 181.144V217.172M1262.37 181.144H1298.4M1262.37 217.172V253.201M1262.37 217.172H1298.4M1262.37 253.201V289.23M1262.37 253.201H1298.4M1262.37 289.23V325.258M1262.37 289.23H1298.4M1262.37 325.258V361.287M1262.37 325.258H1298.4M1262.37 361.287V397.316M1262.37 361.287H1298.4M1262.37 397.316V433.345M1262.37 397.316H1298.4M1262.37 433.345V469.373M1262.37 433.345H1298.4M1262.37 469.373V505.402M1262.37 469.373H1298.4M1262.37 505.402V541.431M1262.37 505.402H1298.4M1262.37 541.431V577.459M1262.37 541.431H1298.4M1262.37 577.459V613.488M1262.37 577.459H1298.4M1262.37 613.488V649.517M1262.37 613.488H1298.4M1262.37 649.517V685.545M1262.37 649.517H1298.4M1262.37 685.545H1298.4M1298.4 1V37.0287M1298.4 1H1334.43M1298.4 37.0287V73.0574M1298.4 37.0287H1334.43M1298.4 73.0574V109.086M1298.4 73.0574H1334.43M1298.4 109.086V145.115M1298.4 109.086H1334.43M1298.4 145.115V181.144M1298.4 145.115H1334.43M1298.4 181.144V217.172M1298.4 181.144H1334.43M1298.4 217.172V253.201M1298.4 217.172H1334.43M1298.4 253.201V289.23M1298.4 253.201H1334.43M1298.4 289.23V325.258M1298.4 289.23H1334.43M1298.4 325.258V361.287M1298.4 325.258H1334.43M1298.4 361.287V397.316M1298.4 361.287H1334.43M1298.4 397.316V433.345M1298.4 397.316H1334.43M1298.4 433.345V469.373M1298.4 433.345H1334.43M1298.4 469.373V505.402M1298.4 469.373H1334.43M1298.4 505.402V541.431M1298.4 505.402H1334.43M1298.4 541.431V577.459M1298.4 541.431H1334.43M1298.4 577.459V613.488M1298.4 577.459H1334.43M1298.4 613.488V649.517M1298.4 613.488H1334.43M1298.4 649.517V685.545M1298.4 649.517H1334.43M1298.4 685.545H1334.43M1334.43 1V37.0287M1334.43 1H1370.46M1334.43 37.0287V73.0574M1334.43 37.0287H1370.46M1334.43 73.0574V109.086M1334.43 73.0574H1370.46M1334.43 109.086V145.115M1334.43 109.086H1370.46M1334.43 145.115V181.144M1334.43 145.115H1370.46M1334.43 181.144V217.172M1334.43 181.144H1370.46M1334.43 217.172V253.201M1334.43 217.172H1370.46M1334.43 253.201V289.23M1334.43 253.201H1370.46M1334.43 289.23V325.258M1334.43 289.23H1370.46M1334.43 325.258V361.287M1334.43 325.258H1370.46M1334.43 361.287V397.316M1334.43 361.287H1370.46M1334.43 397.316V433.345M1334.43 397.316H1370.46M1334.43 433.345V469.373M1334.43 433.345H1370.46M1334.43 469.373V505.402M1334.43 469.373H1370.46M1334.43 505.402V541.431M1334.43 505.402H1370.46M1334.43 541.431V577.459M1334.43 541.431H1370.46M1334.43 577.459V613.488M1334.43 577.459H1370.46M1334.43 613.488V649.517M1334.43 613.488H1370.46M1334.43 649.517V685.545M1334.43 649.517H1370.46M1334.43 685.545H1370.46M1370.46 1V37.0287M1370.46 1H1406.49M1370.46 37.0287V73.0574M1370.46 37.0287H1406.49M1370.46 73.0574V109.086M1370.46 73.0574H1406.49M1370.46 109.086V145.115M1370.46 109.086H1406.49M1370.46 145.115V181.144M1370.46 145.115H1406.49M1370.46 181.144V217.172M1370.46 181.144H1406.49M1370.46 217.172V253.201M1370.46 217.172H1406.49M1370.46 253.201V289.23M1370.46 253.201H1406.49M1370.46 289.23V325.258M1370.46 289.23H1406.49M1370.46 325.258V361.287M1370.46 325.258H1406.49M1370.46 361.287V397.316M1370.46 361.287H1406.49M1370.46 397.316V433.345M1370.46 397.316H1406.49M1370.46 433.345V469.373M1370.46 433.345H1406.49M1370.46 469.373V505.402M1370.46 469.373H1406.49M1370.46 505.402V541.431M1370.46 505.402H1406.49M1370.46 541.431V577.459M1370.46 541.431H1406.49M1370.46 577.459V613.488M1370.46 577.459H1406.49M1370.46 613.488V649.517M1370.46 613.488H1406.49M1370.46 649.517V685.545M1370.46 649.517H1406.49M1370.46 685.545H1406.49M1406.49 1V37.0287M1406.49 1H1442.52M1406.49 37.0287V73.0574M1406.49 37.0287H1442.52M1406.49 73.0574V109.086M1406.49 73.0574H1442.52M1406.49 109.086V145.115M1406.49 109.086H1442.52M1406.49 145.115V181.144M1406.49 145.115H1442.52M1406.49 181.144V217.172M1406.49 181.144H1442.52M1406.49 217.172V253.201M1406.49 217.172H1442.52M1406.49 253.201V289.23M1406.49 253.201H1442.52M1406.49 289.23V325.258M1406.49 289.23H1442.52M1406.49 325.258V361.287M1406.49 325.258H1442.52M1406.49 361.287V397.316M1406.49 361.287H1442.52M1406.49 397.316V433.345M1406.49 397.316H1442.52M1406.49 433.345V469.373M1406.49 433.345H1442.52M1406.49 469.373V505.402M1406.49 469.373H1442.52M1406.49 505.402V541.431M1406.49 505.402H1442.52M1406.49 541.431V577.459M1406.49 541.431H1442.52M1406.49 577.459V613.488M1406.49 577.459H1442.52M1406.49 613.488V649.517M1406.49 613.488H1442.52M1406.49 649.517V685.545M1406.49 649.517H1442.52M1406.49 685.545H1442.52M1442.52 1V37.0287M1442.52 1H1478.55M1442.52 37.0287V73.0574M1442.52 37.0287H1478.55M1442.52 73.0574V109.086M1442.52 73.0574H1478.55M1442.52 109.086V145.115M1442.52 109.086H1478.55M1442.52 145.115V181.144M1442.52 145.115H1478.55M1442.52 181.144V217.172M1442.52 181.144H1478.55M1442.52 217.172V253.201M1442.52 217.172H1478.55M1442.52 253.201V289.23M1442.52 253.201H1478.55M1442.52 289.23V325.258M1442.52 289.23H1478.55M1442.52 325.258V361.287M1442.52 325.258H1478.55M1442.52 361.287V397.316M1442.52 361.287H1478.55M1442.52 397.316V433.345M1442.52 397.316H1478.55M1442.52 433.345V469.373M1442.52 433.345H1478.55M1442.52 469.373V505.402M1442.52 469.373H1478.55M1442.52 505.402V541.431M1442.52 505.402H1478.55M1442.52 541.431V577.459M1442.52 541.431H1478.55M1442.52 577.459V613.488M1442.52 577.459H1478.55M1442.52 613.488V649.517M1442.52 613.488H1478.55M1442.52 649.517V685.545M1442.52 649.517H1478.55M1442.52 685.545H1478.55M1478.55 1V37.0287M1478.55 1H1514.57M1478.55 37.0287V73.0574M1478.55 37.0287H1514.57M1478.55 73.0574V109.086M1478.55 73.0574H1514.57M1478.55 109.086V145.115M1478.55 109.086H1514.57M1478.55 145.115V181.144M1478.55 145.115H1514.57M1478.55 181.144V217.172M1478.55 181.144H1514.57M1478.55 217.172V253.201M1478.55 217.172H1514.57M1478.55 253.201V289.23M1478.55 253.201H1514.57M1478.55 289.23V325.258M1478.55 289.23H1514.57M1478.55 325.258V361.287M1478.55 325.258H1514.57M1478.55 361.287V397.316M1478.55 361.287H1514.57M1478.55 397.316V433.345M1478.55 397.316H1514.57M1478.55 433.345V469.373M1478.55 433.345H1514.57M1478.55 469.373V505.402M1478.55 469.373H1514.57M1478.55 505.402V541.431M1478.55 505.402H1514.57M1478.55 541.431V577.459M1478.55 541.431H1514.57M1478.55 577.459V613.488M1478.55 577.459H1514.57M1478.55 613.488V649.517M1478.55 613.488H1514.57M1478.55 649.517V685.545M1478.55 649.517H1514.57M1478.55 685.545H1514.57M1514.57 1V37.0287M1514.57 1H1550.6M1514.57 37.0287V73.0574M1514.57 37.0287H1550.6M1514.57 73.0574V109.086M1514.57 73.0574H1550.6M1514.57 109.086V145.115M1514.57 109.086H1550.6M1514.57 145.115V181.144M1514.57 145.115H1550.6M1514.57 181.144V217.172M1514.57 181.144H1550.6M1514.57 217.172V253.201M1514.57 217.172H1550.6M1514.57 253.201V289.23M1514.57 253.201H1550.6M1514.57 289.23V325.258M1514.57 289.23H1550.6M1514.57 325.258V361.287M1514.57 325.258H1550.6M1514.57 361.287V397.316M1514.57 361.287H1550.6M1514.57 397.316V433.345M1514.57 397.316H1550.6M1514.57 433.345V469.373M1514.57 433.345H1550.6M1514.57 469.373V505.402M1514.57 469.373H1550.6M1514.57 505.402V541.431M1514.57 505.402H1550.6M1514.57 541.431V577.459M1514.57 541.431H1550.6M1514.57 577.459V613.488M1514.57 577.459H1550.6M1514.57 613.488V649.517M1514.57 613.488H1550.6M1514.57 649.517V685.545M1514.57 649.517H1550.6M1514.57 685.545H1550.6M1550.6 1V37.0287M1550.6 1H1586.63V37.0287M1550.6 37.0287V73.0574M1550.6 37.0287H1586.63M1550.6 73.0574V109.086M1550.6 73.0574H1586.63M1550.6 109.086V145.115M1550.6 109.086H1586.63M1550.6 145.115V181.144M1550.6 145.115H1586.63M1550.6 181.144V217.172M1550.6 181.144H1586.63M1550.6 217.172V253.201M1550.6 217.172H1586.63M1550.6 253.201V289.23M1550.6 253.201H1586.63M1550.6 289.23V325.258M1550.6 289.23H1586.63M1550.6 325.258V361.287M1550.6 325.258H1586.63M1550.6 361.287V397.316M1550.6 361.287H1586.63M1550.6 397.316V433.345M1550.6 397.316H1586.63M1550.6 433.345V469.373M1550.6 433.345H1586.63M1550.6 469.373V505.402M1550.6 469.373H1586.63M1550.6 505.402V541.431M1550.6 505.402H1586.63M1550.6 541.431V577.459M1550.6 541.431H1586.63M1550.6 577.459V613.488M1550.6 577.459H1586.63M1550.6 613.488V649.517M1550.6 613.488H1586.63M1550.6 649.517V685.545M1550.6 649.517H1586.63M1550.6 685.545H1586.63V649.517M1586.63 37.0287V73.0574M1586.63 73.0574V109.086M1586.63 109.086V145.115M1586.63 145.115V181.144M1586.63 181.144V217.172M1586.63 217.172V253.201M1586.63 253.201V289.23M1586.63 289.23V325.258M1586.63 325.258V361.287M1586.63 361.287V397.316M1586.63 397.316V433.345M1586.63 433.345V469.373M1586.63 469.373V505.402M1586.63 505.402V541.431M1586.63 541.431V577.459M1586.63 577.459V613.488M1586.63 613.488V649.517" stroke="url(#paint0_radial_458_6016)" stroke-width="0.900718"/>
</g>
<defs>
<radialGradient id="paint0_radial_458_6016" cx="0" cy="0" r="1" gradientUnits="userSpaceOnUse" gradientTransform="translate(794 343.273) rotate(90) scale(342.273 640.064)">
<stop stop-color="white"/>
<stop offset="1" stop-color="white" stop-opacity="0.2"/>
</radialGradient>
</defs>
</svg>
