<svg width="30" height="25" viewBox="0 0 30 25" fill="none" xmlns="http://www.w3.org/2000/svg">
<path d="M11.989 4.43027L5.12922 12.8236C2.21475 12.3143 0 9.75545 0 6.67477C0 3.22943 2.77702 0.434814 6.20066 0.434814C8.84024 0.434814 11.0956 2.09461 11.989 4.43027Z" fill="#D0F603"/>
<path d="M19.6175 12.5564L29.2731 24.3542H21.3387C20.261 24.3542 19.2552 23.9141 18.6585 23.1848L15.1162 18.8404L14.7913 18.4506L14.4696 18.8404L10.9272 23.1848C10.3306 23.9141 9.32473 24.3542 8.24704 24.3542H0.312683L10.9272 11.3713C11.1959 11.101 11.4395 10.8023 11.6519 10.4848L11.6582 10.4786L18.6585 1.91867C19.2552 1.18937 20.261 0.749268 21.3387 0.749268H29.2731L19.6175 12.547H19.6238L19.6175 12.5564Z" fill="#D0F603"/>
</svg>
