<svg width="63" height="51" viewBox="0 0 63 51" fill="none" xmlns="http://www.w3.org/2000/svg">
<path d="M25.4917 8.55626L10.906 26.4025C4.70912 25.3197 0 19.879 0 13.3286C0 6.00299 5.90466 0.0609131 13.1842 0.0609131C18.7966 0.0609131 23.5921 3.59006 25.4917 8.55626Z" fill="#D0F603"/>
<path d="M41.7115 25.8346L62.2416 50.9196H45.3712C43.0797 50.9196 40.941 49.9838 39.6724 48.4332L32.1405 39.1959L31.4497 38.3671L30.7656 39.1959L23.2337 48.4332C21.965 49.9838 19.8263 50.9196 17.5349 50.9196H0.664429L23.2337 23.3147C23.8049 22.7399 24.3229 22.1049 24.7746 21.4298L24.7879 21.4165L39.6724 3.21594C40.941 1.66525 43.0797 0.729492 45.3712 0.729492H62.2416L41.7115 25.8145H41.7247L41.7115 25.8346Z" fill="#D0F603"/>
</svg>
