<svg width="1519" height="1282" viewBox="0 0 1519 1282" fill="none" xmlns="http://www.w3.org/2000/svg">
<path d="M120.491 90.4955L120.491 1192.5M218.934 90.4955L218.934 1192.5M317.376 90.4955L317.376 1192.5M415.819 90.4955L415.819 1192.5M514.261 90.4955L514.261 1192.5M612.704 90.4955L612.704 1192.5M711.146 90.4955L711.146 1192.5M809.589 90.4955L809.589 1192.5M908.031 90.4955L908.031 1192.5M1006.47 90.4955L1006.47 1192.5M1104.92 90.4955L1104.92 1192.5M1203.36 90.4955L1203.36 1192.5M1301.8 90.4955L1301.8 1192.5M1400.24 90.4955L1400.24 1192.5M0.856506 1280.69L1518.51 1280.69M0.856506 1182.25L1518.51 1182.25M0.856506 1083.81L1518.51 1083.81M0.856506 985.365L1518.51 985.365M0.856506 886.923L1518.51 886.923M0.856506 788.48L1518.51 788.48M0.856506 690.038L1518.51 690.038M0.856506 591.595L1518.51 591.595M0.856506 493.153L1518.51 493.153M0.856506 394.71L1518.51 394.71M0.856506 296.268L1518.51 296.268M0.856506 197.825L1518.51 197.825M0.856506 99.3827L1518.51 99.3827M0.856506 0.940186L1518.51 0.940252" stroke="white" stroke-opacity="0.15" stroke-width="0.95708"/>
</svg>
