<svg width="25" height="25" viewBox="0 0 25 25" fill="none" xmlns="http://www.w3.org/2000/svg">
<path d="M12.3535 4.5C11.8012 4.5 11.3535 4.94772 11.3535 5.5V11.5H5.35352C4.80124 11.5 4.35352 11.9477 4.35352 12.5C4.35352 13.0523 4.80124 13.5 5.35352 13.5H11.3535V19.5C11.3535 20.0523 11.8012 20.5 12.3535 20.5C12.9058 20.5 13.3535 20.0523 13.3535 19.5V13.5H19.3535C19.9058 13.5 20.3535 13.0523 20.3535 12.5C20.3535 11.9477 19.9058 11.5 19.3535 11.5H13.3535V5.5C13.3535 4.94772 12.9058 4.5 12.3535 4.5Z" fill="#878794"/>
</svg>
